<?xml version="1.0" encoding="utf-8"?>
<!-- Generator: Adobe Illustrator 27.6.1, SVG Export Plug-In . SVG Version: 6.00 Build 0)  -->
<svg version="1.1" id="レイヤー_1" xmlns="http://www.w3.org/2000/svg" xmlns:xlink="http://www.w3.org/1999/xlink" x="0px"
	 y="0px" viewBox="0 0 150 150" style="enable-background:new 0 0 150 150;" xml:space="preserve">
<style type="text/css">
	.st0{fill:#FFFFFF;}
	.st1{fill:#211715;}
	.st2{fill:#6AA0B2;}
</style>
<g id="group_00000067204248960622080820000003211993988561765536_">
	<g>
		<path class="st0" d="M117.66,110.47c2.41,0,4.76-0.8,6.43-2.59c2.98-3.19,3.02-8.9,0.07-12.11c-1.65-1.79-4.09-2.7-6.54-2.7
			l2.53-0.07c2.41,0,4.76-0.8,6.43-2.59c2.98-3.19,3.02-8.9,0.07-12.11c-1.65-1.79-4.09-2.7-6.54-2.7c0.18,0,0.28,0,0.28,0
			c2.41,0,4.76-0.8,6.43-2.59c2.98-3.19,3.02-8.9,0.07-12.11c-1.65-1.79-4.09-2.7-6.54-2.7H94.55c0,0-3.06,0-6.12,0
			c1.23-9.74,1.32-13.83,1.64-21c0.11-2.48-0.28-5.83-1.36-8.11c-1.03-2.17-2.75-3.66-4.55-4.67c-0.83-0.47-1.77-0.72-2.73-0.82
			c-2.49-0.24-4.26-0.17-6.14,0.78c-3.93,1.99-4.46,7.37-5.51,11.04c-1.2,4.18-3.32,11.71-4.94,15.81
			c-2.02,4.86-3.01,6.72-5.13,9.12c-1.26,1.43-3.22,2.65-5.13,3.57h0c-4.83,0-8.74,3.91-8.74,8.73c0,15.03,0,31.19,0,46.16
			c0,4.79,3.89,8.67,8.68,8.67c0,0,0,0,0,0c30.47,0,59.26,0,59.28,0c2.36,0,4.64-0.78,6.26-2.52c2.89-3.1,2.94-8.66,0.07-11.77
			c-1.6-1.74-3.98-2.62-6.35-2.63L117.66,110.47z"/>
	</g>
	<g>
		<g>
			<path class="st1" d="M91.09,56.08c0.73-6.16,1.1-12.32,1.37-18.52c0.14-3.27-0.23-6.73-1.67-9.71c-1.43-2.96-4.46-5.65-7.7-6.44
				c-3.29-0.79-7.31-0.5-10.08,1.57c-2.35,1.75-3.57,4.44-4.36,7.2c-1.6,5.57-2.98,11.18-4.79,16.69c-1,3.04-2.14,6.08-3.74,8.86
				c-1.58,2.75-3.73,4.62-6.72,6.1c-1.16,0.57-1.48,2.22-0.86,3.28c0.69,1.19,2.12,1.43,3.28,0.86c2.94-1.45,5.3-3.33,7.24-5.97
				c1.51-2.04,2.52-4.38,3.51-6.71c2.2-5.2,3.67-10.7,5.22-16.12c1.12-3.93,1.44-10.63,6.57-11.27c2.88-0.36,5.58,0.51,7.39,2.84
				c1.64,2.12,1.99,5.13,1.96,7.73c-0.06,6.53-0.64,13.12-1.4,19.6c-0.15,1.29,1.21,2.4,2.4,2.4
				C90.11,58.48,90.93,57.37,91.09,56.08L91.09,56.08z"/>
		</g>
	</g>
	<g>
		<g>
			<path class="st1" d="M102.35,112.87c4.33,0,8.66,0,12.99,0c2.58,0,5.07-0.01,7.48-1.15c4.19-1.97,6.36-6.74,5.84-11.22
				c-0.29-2.49-1.25-4.89-3.05-6.68c-2.11-2.1-5.05-3.1-7.99-3.16c-3.09-0.06-3.09,4.74,0,4.8c3.56,0.07,6.14,2.48,6.31,5.77
				c0.17,3.21-1.53,6.17-5.04,6.75c-1.41,0.23-2.97,0.08-4.39,0.08c-2.42,0-4.83,0-7.25,0c-1.63,0-3.26,0-4.89,0
				C99.27,108.07,99.26,112.87,102.35,112.87L102.35,112.87z"/>
		</g>
	</g>
	<g>
		<g>
			<path class="st1" d="M104.85,95.39c4.33,0,8.66,0,12.99,0c2.58,0,5.07-0.01,7.48-1.15c4.19-1.97,6.36-6.74,5.84-11.22
				c-0.29-2.49-1.25-4.89-3.05-6.68c-2.11-2.1-5.05-3.1-7.99-3.16c-3.09-0.06-3.09,4.74,0,4.8c3.56,0.07,6.14,2.48,6.31,5.77
				c0.17,3.21-1.53,6.17-5.04,6.75c-1.41,0.23-2.97,0.08-4.39,0.08c-2.42,0-4.83,0-7.25,0c-1.63,0-3.26,0-4.89,0
				C101.76,90.59,101.75,95.39,104.85,95.39L104.85,95.39z"/>
		</g>
	</g>
	<g>
		<g>
			<path class="st1" d="M105.09,77.98c4.08,0,8.15,0,12.23,0c1.93,0,3.88,0.1,5.78-0.29c4.22-0.87,7.46-4.34,8.17-8.57
				c0.72-4.3-0.68-8.73-4.3-11.32c-2.15-1.54-4.74-2.02-7.33-2.02c-4.35,0-8.71,0-13.06,0c-4.01,0-8.02,0-12.03,0
				c-3.09,0-3.09,4.8,0,4.8c7.6,0,15.2,0,22.8,0c0.99,0,1.99-0.02,2.98,0c3.11,0.05,5.64,1.85,6.24,4.97
				c0.58,3.01-0.82,6.29-3.85,7.29c-1.53,0.5-3.22,0.35-4.81,0.35c-4.27,0-8.55,0-12.82,0C102,73.18,102,77.98,105.09,77.98
				L105.09,77.98z"/>
		</g>
	</g>
	<g>
		<g>
			<path class="st1" d="M113.8,112.94c2.65,0.06,5.04,1.44,5.8,4.07c0.64,2.22,0.23,4.88-1.49,6.52c-1.92,1.84-4.67,1.53-7.11,1.53
				c-10.21,0-20.42,0-30.63,0c-8.61,0-17.22,0-25.84,0c-3.09,0-3.09,4.8,0,4.8c15.22,0,30.45,0,45.67,0c4,0,8,0,12,0
				c0.6,0,1.21,0.01,1.81,0c3.69-0.09,7.23-1.79,9.13-5.04c1.87-3.19,1.98-7.26,0.5-10.61c-1.72-3.9-5.71-5.97-9.85-6.07
				C110.71,108.07,110.71,112.87,113.8,112.94L113.8,112.94z"/>
		</g>
	</g>
	<g>
		<path class="st2" d="M22.09,127.47h21.77c1.1,0,2-0.89,2-1.99c0-19.39,0-41.5,0-60.88c0-1.1-0.9-1.99-2-1.99H22.09
			c-1.1,0-2,0.9-2,2l0,60.87C20.09,126.57,20.98,127.47,22.09,127.47z"/>
	</g>
	<g>
		<g>
			<path class="st1" d="M22.09,129.87c4.89,0,9.79,0,14.68,0c2.24,0,4.49,0.03,6.73,0c1.61-0.02,3.14-0.59,4.05-2
				c0.81-1.26,0.71-2.71,0.71-4.15c0-1.48,0-2.97,0-4.45c0-12.51,0-25.02,0-37.52c0-3.05,0-6.1,0-9.15c0-1.42,0-2.84,0-4.26
				c0-1.52,0.22-3.22-0.11-4.71c-0.47-2.11-2.34-3.36-4.42-3.43c-0.7-0.02-1.4,0-2.1,0c-5.87,0-11.74,0-17.61,0
				c-0.62,0-1.25-0.03-1.86,0c-2.49,0.11-4.35,1.89-4.46,4.4c-0.03,0.67,0,1.35,0,2.02c0,10.96,0,21.92,0,32.89
				c0,5.94,0,11.87,0,17.81c0,2.7-0.11,5.43,0,8.12C17.79,127.99,19.61,129.67,22.09,129.87c1.29,0.1,2.4-1.18,2.4-2.4
				c0-1.39-1.1-2.3-2.4-2.4c0.51,0.04,0.32,0.68,0.4,0.1c0.05-0.38,0-0.8,0-1.18c0-1.55,0-3.11,0-4.66c0-5.22,0-10.45,0-15.67
				c0-11.25,0-22.51,0-33.76c0-1.42,0-2.83,0-4.25c0-0.23,0.09-0.7,0-0.92c-0.01-0.02,0.02-0.12,0-0.13c0.4,0.37-0.66,0.21-0.31,0.4
				c0.38,0.2,1.41,0,1.83,0c1.19,0,2.38,0,3.57,0c3.06,0,6.12,0,9.18,0c2.19,0,4.39,0,6.58,0c0.08,0,0.43,0.05,0.48,0
				c0.04-0.04,0.6,0.46-0.25-0.12c0.01,0.01-2.7,1.03-0.12-0.29c-0.05,0.03,0,1.24,0,1.32c0,2.83,0,5.67,0,8.5
				c0,11.76,0,23.53,0,35.29c0,2.89,0,5.78,0,8.67c0,1.34,0,2.68,0,4.02c0,0.59,0,1.18,0,1.77c0,0.31-0.09,0.8,0,1.1
				c0.2,0.66,0.07-0.38,0.26-0.14c-0.06-0.08,0.3,0.03-0.09-0.05c-0.25-0.05-0.57,0-0.83,0c-1.02,0-2.04,0-3.07,0
				c-5.47,0-10.93,0-16.4,0c-0.41,0-0.83,0-1.24,0C19,125.07,18.99,129.87,22.09,129.87z"/>
		</g>
	</g>
</g>
</svg>
