<?xml version="1.0" encoding="utf-8"?>
<!-- Generator: Adobe Illustrator 27.6.1, SVG Export Plug-In . SVG Version: 6.00 Build 0)  -->
<svg version="1.1" id="レイヤー_1" xmlns="http://www.w3.org/2000/svg" xmlns:xlink="http://www.w3.org/1999/xlink" x="0px"
	 y="0px" viewBox="0 0 300 300" style="enable-background:new 0 0 300 300;" xml:space="preserve">
<style type="text/css">
	.st0{fill:#FFFFFF;}
	.st1{fill:#231815;}
	.st2{fill:#FBD375;}
</style>
<g id="group_00000135686371452033798980000002627077881493921966_">
	<g>
		<path class="st0" d="M163.6,184.4c-9.3,0-18.7,0-28,0c-1.9,0-3.8-0.4-5.5-1.1l0.6,8.3c0.2,7.3,0.5,15,0.8,20.1
			c0.2,3.5,3,6.2,6.7,6.4H161c3.7-0.2,6.5-2.9,6.7-6.4c0.3-5.1,0.6-12.8,0.8-20.1l0.3-8.2C167.2,184.1,165.4,184.4,163.6,184.4z"/>
	</g>
	<g>
		<g>
			<path class="st1" d="M166.1,191.5c-0.1,4.2-0.3,8.4-0.5,12.6c-0.1,1.9-0.2,3.7-0.3,5.6c-0.1,1.3,0,2.6-0.7,3.8
				c-1.7,2.7-5.2,2.1-7.9,2.1c-4.3,0-8.6,0-12.9,0c-1.6,0-3.1,0-4.7,0c-1.3,0-2.5-0.1-3.6-0.9c-1.1-0.8-1.6-2-1.7-3.3
				c-0.2-1.9-0.2-3.7-0.3-5.6c-0.2-4.8-0.4-9.5-0.5-14.3c-0.1-3.1-4.9-3.1-4.8,0c0.2,4.6,0.3,9.1,0.5,13.7c0.2,3.5-0.3,7.9,1.8,11
				c1.7,2.6,4.6,4.1,7.7,4.2c1.2,0,2.4,0,3.7,0c4.6,0,9.2,0,13.8,0c3.9,0,7.9,0.5,11.1-2.2c3.5-2.9,3.3-7.2,3.5-11.3
				c0.2-5.1,0.4-10.2,0.6-15.3C171,188.5,166.2,188.5,166.1,191.5L166.1,191.5z"/>
		</g>
	</g>
	<g>
		<g>
			<path class="st1" d="M132.3,203.5c9.5,0,18.9,0,28.4,0c2.1,0,4.1,0,6.2,0c3.1,0,3.1-4.8,0-4.8c-9.5,0-18.9,0-28.4,0
				c-2.1,0-4.1,0-6.2,0C129.2,198.7,129.2,203.5,132.3,203.5L132.3,203.5z"/>
		</g>
	</g>
	<g>
		<path class="st2" d="M128.7,115.1c-11.6,6.8-18.3,19.3-18.3,33.3c0,14.5,5,25.6,17.5,33.7c2.3,1.5,4.9,2.3,7.6,2.3
			c9.3,0,18.7,0,28,0c2.7,0,5.3-0.8,7.6-2.3c12.5-8.2,17.5-19.2,17.5-33.7c0-20.9-15-38.7-39.1-38.7
			C141.5,109.8,134.5,111.8,128.7,115.1z"/>
	</g>
	<g>
		<g>
			<path class="st1" d="M127.5,113.1c-7.5,4.4-13.1,11.1-16.4,19.1c-3.3,8-3.7,16.8-2.4,25.3c1.2,7.7,4.7,14.9,10.2,20.5
				c3,3.1,6.8,6.2,10.8,7.8c2.5,1,5.1,1.1,7.8,1.1c2.8,0,5.7,0,8.5,0c5.7,0,11.3,0,17,0c2.7,0,5.2-0.5,7.6-1.7c2-1,3.9-2.4,5.7-3.8
				c6.2-4.9,10.8-11.5,13-19.1c4.2-14.6,1.3-31.4-9.3-42.6c-11.6-12.2-30.9-15.4-46.4-9.5C131.5,111,129.5,111.9,127.5,113.1
				c-2.7,1.5-0.3,5.7,2.4,4.1c12.9-7.5,31-6.8,43,2.5c10.8,8.4,14.8,22.4,13,35.6c-0.9,6.7-3.6,13.2-8.2,18.2
				c-2.5,2.8-5.5,5.4-8.9,7.2c-2,1-4.1,1.3-6.3,1.3c-2.7,0-5.3,0-8,0c-5.3,0-10.7,0-16,0c-2.4,0-4.7,0.1-6.9-0.7
				c-1.9-0.7-3.6-2-5.2-3.2c-5.5-4.2-9.7-9.9-11.8-16.5c-4.4-14.4-1-31.3,10.7-41.2c1.4-1.2,3-2.3,4.6-3.2
				C132.6,115.6,130.2,111.5,127.5,113.1z"/>
		</g>
	</g>
	<g>
		<g>
			<path class="st1" d="M168.7,157.2c-2.7-5.9-9.2-9.5-15.5-10c-3.9-0.3-7.8,1.7-10,4.8c-2.3,3.2-2.5,7.7-0.4,11
				c2.3,3.6,6.3,4.9,10.4,4.2c4.3-0.7,7.1-4.1,7.7-8.3c1.1-7.7-5.1-13.2-12.1-14.4c-4.3-0.7-9.2-0.5-12.9,2c-3.5,2.4-6,5.9-6.9,10
				c-0.7,3,4,4.3,4.6,1.3c1.2-5.5,5.7-9,11.3-8.9c4.1,0.1,9.3,1.5,10.9,5.7c0.9,2.2,0.6,5.5-1.3,7.1c-1.8,1.5-5.2,1.3-6.9-0.4
				c-1.6-1.6-1.9-4.1-0.7-6.1c1.2-2.2,3.7-3.4,6.2-3.2c5,0.4,9.6,3.2,11.6,7.6c0.5,1.2,2.2,1.5,3.3,0.9
				C169.1,159.8,169.3,158.4,168.7,157.2L168.7,157.2z"/>
		</g>
	</g>
	<g>
		<g>
			<path class="st1" d="M123.1,88.2c1.3,3.5,2.7,7.1,4.1,10.6c0.5,1.2,1.6,2.1,3,1.7c1.1-0.4,2.2-1.7,1.7-3
				c-1.4-3.5-2.7-7.1-4.1-10.6c-0.4-1.2-1.6-2.1-3-1.7C123.6,85.6,122.6,86.9,123.1,88.2L123.1,88.2z"/>
		</g>
	</g>
	<g>
		<g>
			<path class="st1" d="M171.4,86.9c-1.3,3.5-2.7,7.1-4.1,10.6c-0.5,1.2,0.5,2.7,1.7,3c1.4,0.3,2.5-0.4,3-1.7
				c1.4-3.5,2.7-7.1,4.1-10.6c0.4-1.2-0.5-2.7-1.7-3C173,84.9,171.9,85.7,171.4,86.9L171.4,86.9z"/>
		</g>
	</g>
	<g>
		<g>
			<path class="st1" d="M152,92.6c0-3.8,0-7.6,0-11.4c0-1.3-1.1-2.5-2.4-2.4c-1.3,0.1-2.4,1.1-2.4,2.4c0,3.8,0,7.6,0,11.4
				c0,1.3,1.1,2.5,2.4,2.4C150.9,95,152,94,152,92.6L152,92.6z"/>
		</g>
	</g>
</g>
</svg>
