<?xml version="1.0" encoding="utf-8"?>
<!-- Generator: Adobe Illustrator 27.6.1, SVG Export Plug-In . SVG Version: 6.00 Build 0)  -->
<svg version="1.1" id="レイヤー_1" xmlns="http://www.w3.org/2000/svg" xmlns:xlink="http://www.w3.org/1999/xlink" x="0px"
	 y="0px" viewBox="0 0 300 300" style="enable-background:new 0 0 300 300;" xml:space="preserve">
<style type="text/css">
	.st0{fill:#FFFFFF;}
	.st1{fill:#7A7473;}
	.st2{fill:#211715;}
	.st3{fill:#6AA0B2;}
</style>
<g>
	<g>
		<path class="st0" d="M189.2,130.2c1.2-1.1,3-1.6,4.7-1.4c1.7,0.3,3.2,1.3,4,2.7c0.5,1,0.7,2.1,0.8,3.2c0.4,4.3-0.5,8.6-2.4,12.5
			c-0.9,1.9-2.2,3.7-3.9,5.1c-1.3,1-2.9,1.8-4.6,2.1c0,0-0.3,0-0.8,0.1c-0.4,1.4-0.8,2.6-1,3.3c-1.3,3.5-8.3,15.3-17.2,20.3
			c0.1,1.6,0.4,3.2,0.6,4.9c0.5,2.6,0.3,5,4,6.3c0.2,0.1,5.8,2.7,8.9,4.2c0,0-4.6,19.4-33,19.4s-31.8-20.2-31.8-20.2
			c3.4-1.6,7.3-3.4,7.5-3.5c3.7-1.3,3.5-3.7,4-6.3c0.3-1.8,0.5-3.5,0.7-5.3c-3.3-2-6.4-4.7-9.2-8.1c-4-4.8-6.3-10.2-7.7-14.9
			c-0.9-0.1-1.5-0.2-1.5-0.2c-1.7-0.3-3.3-1-4.6-2.1c-1.7-1.4-2.9-3.2-3.9-5.1c-1.9-3.9-2.8-8.2-2.4-12.5c0.1-1.1,0.3-2.2,0.8-3.2
			c0.8-1.4,2.3-2.4,4-2.7c1.7-0.3,3.5,0.3,4.7,1.4c0,0,0.1-31.1,39.9-31.1C190.8,99.1,189.2,130.2,189.2,130.2z"/>
	</g>
	<g>
		<path class="st1" d="M133.4,67.4c-7,1.6-14,4.8-19.9,10.7c0,0,2.4,1.3,4.5,2.4c-6.5,3.5-11.6,11.1-13.9,17.9
			c-2.6,7.5-3.3,18.2-0.3,30.8c0.4-0.2,0.9-0.3,1.4-0.4c1.9-0.3,3.9,0.4,5.1,1.7c11.4-10.9,21.4-17.4,31.4-25.3
			c0.1,0.7,2.2,6,2.7,6.2c0.7,0.3,7.9-4.2,13.1-7.4c0.5,0.1,8.5,2,8.5,2c3.4,1.3,6.3,2.8,9.6,5.6c5.8,5,10.5,12.3,13.4,18.8
			c1.2-1.2,3.1-1.9,4.9-1.6c0.4,0.1,0.7,0.1,1,0.3c2.9-7.5,3.4-18.5-0.3-28.8c-2.6-7.3-9.1-14.9-13.7-17.1l-6.7-4.8
			c-5.7-7.8-14.3-11.9-26.4-12.2C143.2,66.1,138.3,66.4,133.4,67.4z"/>
	</g>
	<g>
		<g>
			<path class="st2" d="M118.6,194.4c2-0.9,4-1.9,6-2.8c0.5-0.2,1-0.4,1.4-0.6c-1.1,0.6,0.4-0.1,0.5-0.2c0.2-0.1,0.4-0.2,0.6-0.3
				c0.5-0.3,1-0.6,1.4-1c1.3-1.2,1.9-2.9,2.2-4.6c0.4-2.4,0.8-4.8,1-7.2c0.1-1.1-1-2-2-2c-1.2,0-1.9,0.9-2,2c-0.2,2-0.5,4-0.8,6
				c-0.1,0.7-0.2,1.4-0.5,2c0.2-0.5-0.1,0.1-0.1,0.2c-0.1,0.1-0.2,0.3-0.3,0.4c0.3-0.4-0.1,0-0.1,0.1c-0.1,0.1-0.2,0.2-0.3,0.2
				c0.1-0.1,0.2-0.1,0,0c-1,0.7-2.2,1.1-3.4,1.6c-1.9,0.9-3.9,1.8-5.8,2.7c-1,0.4-1.2,1.9-0.7,2.7
				C116.4,194.7,117.6,194.9,118.6,194.4L118.6,194.4z"/>
		</g>
	</g>
	<g>
		<g>
			<path class="st2" d="M166.9,178.1c0.2,2.6,0.6,5.2,1.1,7.7c0.5,2.2,1.9,4,3.9,4.9c0.1,0,0.9,0.5,1.1,0.4c0,0-0.6-0.3-0.3-0.1
				c0.2,0.1,0.4,0.2,0.6,0.3c0.8,0.4,1.5,0.7,2.3,1.1c1.9,0.9,3.9,1.8,5.8,2.8c1,0.5,2.2,0.3,2.7-0.7c0.5-0.9,0.3-2.3-0.7-2.7
				c-3-1.4-6-3-9.1-4.3c-0.4-0.2-0.7-0.3-1.1-0.5c-0.1,0-0.6-0.4-0.4-0.3c0.1,0.1-0.3-0.3-0.3-0.3c-0.1-0.2-0.1-0.2,0,0
				c-0.1-0.1-0.1-0.2-0.2-0.3c-0.1-0.1-0.3-0.7-0.1-0.2c-0.1-0.4-0.2-0.7-0.3-1.1c-0.5-2.2-0.8-4.4-1-6.7c-0.1-1.1-0.9-2-2-2
				C167.8,176.1,166.8,177,166.9,178.1L166.9,178.1z"/>
		</g>
	</g>
	<g>
		<path class="st3" d="M71.4,233.2c2.2-6.7,3.6-10.1,5.4-13.3c2.5-4.3,5-8.7,8.7-11.6c4.2-3.3,7.2-5.7,12.5-8
			c5.5-2.2,10.5-4.4,15.9-6.7c1.2-0.5,2.6-0.4,3.7,0.3c6.7,4.3,20.9,8.3,31.9,8.3c10.9,0,24.8-3.9,31.6-8.1c1.3-0.8,2.9-0.9,4.3-0.3
			c5.2,2.3,10.2,4.4,15.6,6.6c5.3,2.4,8.3,4.8,12.5,8c3.8,2.9,6.3,7.3,8.7,11.6c1.9,3.2,3.2,6.7,5.4,13.3H71.4z"/>
	</g>
	<g>
		<g>
			<path class="st2" d="M73.4,233.8c1.8-5.3,3.7-10.3,6.5-15.1c1.7-2.9,3.5-5.7,5.9-7.9c2.2-2.1,4.8-3.9,7.3-5.5
				c2.9-1.9,6-3.2,9.2-4.6c3.5-1.5,7-3,10.6-4.5c1.4-0.6,2.6-1.4,4-0.6c1.1,0.6,2.1,1.2,3.3,1.8c2.6,1.3,5.4,2.3,8.2,3.2
				c6.2,1.9,12.6,3.2,19.1,3.5c6.4,0.3,12.8-0.7,18.9-2.2c5.4-1.3,10.9-3.2,15.7-6c1.6-0.9,2.7-0.4,4.3,0.3c1.8,0.8,3.5,1.5,5.3,2.3
				c3.5,1.5,7.1,2.8,10.5,4.5c6.3,3.2,12.2,7.6,16,13.6c1.6,2.6,3.2,5.2,4.4,8c1.3,3,2.4,6.2,3.4,9.3c0.8,2.4,4.7,1.4,3.9-1.1
				c-1.9-5.6-3.9-10.9-6.9-16c-1.8-3-3.7-6-6.2-8.5c-2.3-2.2-5.1-4.2-7.8-6c-3-2-6.1-3.5-9.4-4.8c-3.7-1.5-7.4-3.1-11-4.7
				c-1.7-0.7-3.3-1.6-5.2-1.4c-1.7,0.2-3,1-4.4,1.8c-2.5,1.3-5.1,2.4-7.8,3.2c-6.3,2.1-12.8,3.5-19.4,3.7
				c-6.4,0.2-12.9-0.8-19.1-2.5c-3-0.8-5.9-1.8-8.8-3c-1.2-0.5-2.3-1.1-3.4-1.7c-1.4-0.8-2.6-1.7-4.3-1.7c-1.8-0.1-3.5,0.8-5.1,1.5
				c-1.9,0.8-3.8,1.6-5.7,2.4c-3.6,1.5-7.3,2.9-10.7,4.7c-3.2,1.7-6.1,3.8-8.9,6c-3.1,2.4-5.6,5.3-7.7,8.6c-1.7,2.6-3.3,5.4-4.5,8.3
				c-1.4,3.2-2.6,6.6-3.7,10C68.7,235.2,72.6,236.2,73.4,233.8L73.4,233.8z"/>
		</g>
	</g>
	<g>
		<g>
			<path class="st2" d="M185.8,150c-0.1,1.7-0.4,3.3-0.9,4.9c-0.2,0.6-0.4,1.2-0.6,1.8c-0.1,0.2-0.4,1.1-0.2,0.6
				c-0.7,1.6-1.6,3.2-2.6,4.7c-2.8,4.5-6.3,8.8-10.5,12.1c-2.3,1.8-4.9,3.3-7.8,3.9c-2.5,0.6-1.4,4.4,1.1,3.9
				c5.9-1.4,10.9-5.6,14.8-10.1c3.2-3.7,6.2-7.8,8.3-12.3c1.3-3,2.3-6.4,2.4-9.7C189.9,147.4,185.9,147.4,185.8,150L185.8,150z"/>
		</g>
	</g>
	<g>
		<g>
			<path class="st2" d="M109.6,149.5c1.4,8,4.4,15.6,9.7,21.8c5.4,6.3,12.5,11,20.8,11.9c1.1,0.1,2-1,2-2c0-1.2-0.9-1.9-2-2
				c-7.4-0.8-13.6-5.4-18.3-11c-4.7-5.6-7.2-12.6-8.4-19.7c-0.2-1.1-1.5-1.7-2.5-1.4C109.9,147.3,109.5,148.4,109.6,149.5
				L109.6,149.5z"/>
		</g>
	</g>
	<g>
		<g>
			<path class="st2" d="M190.6,131.7c1.6-1.4,4.5-1.1,5.6,0.9c0.6,1.1,0.6,2.5,0.6,3.7c0,1.4-0.1,2.9-0.3,4.3
				c-1,5-3.6,10.9-9.2,11.9c-1.1,0.2-1.7,1.5-1.4,2.5c0.3,1.1,1.4,1.6,2.5,1.4c7.9-1.4,11.7-10.3,12.4-17.4
				c0.3-3.5,0.2-7.9-2.8-10.3c-3-2.5-7.2-2.2-10.2,0.3C185.8,130.5,188.7,133.3,190.6,131.7L190.6,131.7z"/>
		</g>
	</g>
	<g>
		<g>
			<path class="st2" d="M111.4,128.8c-2.9-2.5-7.1-2.7-10.2-0.3c-3,2.4-3.1,6.8-2.8,10.3c0.7,7.1,4.5,16,12.4,17.4
				c1.1,0.2,2.2-0.3,2.5-1.4c0.3-1-0.3-2.3-1.4-2.5c-5.6-1-8.2-6.9-9.2-11.9c-0.3-1.4-0.4-2.7-0.4-4.1c0-1.3,0-2.8,0.6-3.9
				c1.1-2,3.9-2.3,5.6-0.9C110.5,133.3,113.4,130.5,111.4,128.8L111.4,128.8z"/>
		</g>
	</g>
	<g>
		<g>
			<path class="st2" d="M179.9,85c2.9,1.4,5.3,3.9,7.3,6.4c2.5,3.1,4.6,6.7,5.9,10.5c2.6,8.1,3.1,17.1,0.5,25.2
				c-0.8,2.5,3.1,3.5,3.9,1.1c4.4-13.7,1.2-29.7-8.1-40.5c-2.1-2.4-4.5-4.8-7.4-6.2C179.6,80.4,177.6,83.8,179.9,85L179.9,85z"/>
		</g>
	</g>
	<g>
		<g>
			<path class="st2" d="M157.8,101.5c-4.1,2.5-8.1,5.2-12.3,7.4c-0.3,0.2-0.7,0.3-1,0.5c-0.1,0-0.4,0.3-0.2,0.1c0.2-0.2,0,0-0.1,0
				c0.4,0,1,0.3,1.6,0.5c0.2,0.1,0.2,0.4,0,0c-0.2-0.3-0.3-0.7-0.5-1c-0.6-1.3-1.4-2.8-1.6-4.2c-0.2-1.7-2.3-1.7-3.3-0.9
				c-10.2,8-20.8,15.4-30.3,24.3c-1.9,1.8,0.9,4.6,2.8,2.8c9.5-8.9,20.1-16.3,30.3-24.3c-1.1-0.3-2.2-0.6-3.3-0.9
				c0.3,1.8,1.4,3.8,2.2,5.5c0.4,0.9,0.9,1.8,1.9,2.1c0.8,0.2,1.6-0.1,2.4-0.4c2.1-0.9,4-2.2,6-3.4c2.5-1.5,5-3.1,7.6-4.7
				C162,103.6,160,100.2,157.8,101.5L157.8,101.5z"/>
		</g>
	</g>
	<g>
		<g>
			<path class="st2" d="M165.5,108c5.1,2,9.3,5.2,13,9.3c3.5,4,6.3,8.7,8.6,13.5c0.5,1,1.9,1.2,2.7,0.7c1-0.6,1.2-1.8,0.7-2.7
				c-2.4-5.3-5.6-10.3-9.5-14.6c-4-4.6-8.8-7.9-14.5-10.1c-1-0.4-2.2,0.4-2.5,1.4C163.8,106.6,164.5,107.6,165.5,108L165.5,108z"/>
		</g>
	</g>
	<g>
		<g>
			<path class="st2" d="M119.8,77.6c-7.1,2.7-12.4,9-15.7,15.7c-3.2,6.5-4.4,13.8-4.2,21c0.1,5.2,0.8,10.3,2,15.4
				c0.6,2.5,4.5,1.4,3.9-1.1c-3.2-13.6-3.1-29.2,6.4-40.5c2.4-2.8,5.2-5.4,8.7-6.7c1-0.4,1.7-1.3,1.4-2.5
				C122,78,120.8,77.2,119.8,77.6L119.8,77.6z"/>
		</g>
	</g>
	<g>
		<g>
			<path class="st2" d="M176,77.4c-5.3-7.1-12.9-11.3-21.6-12.6c-9.2-1.4-19.2-0.7-27.9,2.7c-5.4,2.1-10.2,5.2-14.3,9.3
				c-1.8,1.8,1,4.6,2.8,2.8c6.4-6.4,14.8-10,23.7-11c8.1-0.9,17-0.7,24.4,3c3.7,1.9,7,4.5,9.5,7.9c0.6,0.9,1.7,1.3,2.7,0.7
				C176.1,79.7,176.6,78.3,176,77.4L176,77.4z"/>
		</g>
	</g>
	<g id="face_28_">
		<g>
			<g>
				<path class="st2" d="M142.4,162.1c2.4,1.3,4.9,1.8,7.6,1.8c2.7,0,5.5-0.6,7.7-2.3c0.9-0.7,0.7-2.1,0-2.8c-0.8-0.8-2-0.7-2.8,0
					c0.6-0.5,0.1-0.1,0,0c-0.2,0.1-0.3,0.2-0.5,0.3c-0.1,0-0.2,0.1-0.3,0.1c-0.3,0.2,0.1-0.1,0.1,0c0,0-0.6,0.2-0.7,0.2
					c-0.6,0.2-1.2,0.3-1.8,0.4c0.3,0,0,0-0.2,0c-0.2,0-0.4,0-0.5,0c-0.4,0-0.9,0-1.3,0c-0.4,0-0.8,0-1.2,0c-0.2,0-0.4,0-0.5,0
					c0,0-0.7-0.1-0.3,0c-0.6-0.1-1.1-0.2-1.7-0.4c-0.2-0.1-0.5-0.2-0.7-0.2c-0.5-0.2,0.3,0.2-0.2-0.1c-0.3-0.1-0.6-0.3-0.9-0.4
					c-0.9-0.5-2.2-0.3-2.7,0.7C141.2,160.3,141.4,161.6,142.4,162.1L142.4,162.1z"/>
			</g>
		</g>
		<g>
			<g>
				<path class="st2" d="M149,144.2c0.3,1.3,0.7,2.6,0.8,3.9c0-0.2,0-0.4-0.1-0.5c0,0.2,0,0.4,0,0.5c0-0.2,0-0.4,0.1-0.5
					c0,0.1,0,0.2-0.1,0.2c0.1-0.2,0.1-0.3,0.2-0.5c0,0.1-0.1,0.1-0.1,0.2c0.1-0.1,0.2-0.3,0.3-0.4c0,0-0.1,0.1-0.1,0.1
					c0.1-0.1,0.3-0.2,0.4-0.3c-0.1,0.1-0.2,0.1-0.3,0.2c0.2-0.1,0.3-0.1,0.5-0.2c-0.2,0.1-0.3,0.1-0.5,0.2c0.2,0,0.4,0,0.5-0.1
					c-0.2,0-0.3,0-0.5,0c0.2,0,0.4,0,0.5,0.1c-0.2,0-0.4-0.1-0.5-0.1c-0.3-0.1-0.5-0.1-0.8,0c-0.3,0-0.5,0.1-0.7,0.2
					c-0.4,0.2-0.8,0.7-0.9,1.2c-0.1,0.5-0.1,1.1,0.2,1.5c0.3,0.4,0.7,0.9,1.2,0.9c0.4,0.1,0.8,0.2,1.2,0.2c0.7,0,1.3-0.2,1.8-0.4
					c0.7-0.3,1.3-1,1.5-1.8c0.2-0.7,0.1-1.2,0-1.9c-0.2-1.2-0.5-2.5-0.8-3.7c-0.3-1-1.4-1.7-2.5-1.4
					C149.3,142,148.7,143.1,149,144.2L149,144.2z"/>
			</g>
		</g>
		<g>
			<path class="st2" d="M128.6,133.2c-0.6,2.1-0.2,6.9,3.7,7.3c5.2,0,5.5-5.8,3.8-8.6C134.7,129.7,130.4,128.8,128.6,133.2z"/>
		</g>
		<g>
			<path class="st2" d="M170.6,133.2c0.6,2.1,0.2,6.9-3.7,7.3c-5.2,0-5.5-5.8-3.8-8.6C164.5,129.7,168.8,128.8,170.6,133.2z"/>
		</g>
	</g>
</g>
</svg>
