<?xml version="1.0" encoding="utf-8"?>
<!-- Generator: Adobe Illustrator 27.6.1, SVG Export Plug-In . SVG Version: 6.00 Build 0)  -->
<svg version="1.1" id="レイヤー_1" xmlns="http://www.w3.org/2000/svg" xmlns:xlink="http://www.w3.org/1999/xlink" x="0px"
	 y="0px" viewBox="0 0 300 300" style="enable-background:new 0 0 300 300;" xml:space="preserve">
<style type="text/css">
	.st0{fill:#FFFFFF;}
	.st1{fill:#211715;}
	.st2{fill:#908B8A;}
	.st3{fill:#F4B467;}
</style>
<g>
	<g>
		<path class="st0" d="M189.2,130.8c1.2-1.1,3-1.6,4.7-1.4c1.7,0.3,3.2,1.3,4,2.7c0.5,1,0.7,2.1,0.8,3.2c0.4,4.3-0.5,8.6-2.4,12.5
			c-0.9,1.9-2.2,3.7-3.9,5.1c-1.3,1-2.9,1.8-4.6,2.1c0,0-0.3,0-0.8,0.1c-0.4,1.4-0.8,2.6-1,3.3c-1.3,3.5-8.3,15.4-17.3,20.4
			c0.1,2.3,0.4,4.5,0.8,6.8c0.5,2.6,0.3,5,4,6.3c0.2,0.1,5.8,2.7,8.9,4.2c0,0-8.3,19.4-32.9,19.4s-31.9-20.1-31.9-20.1
			c3.4-1.6,7.3-3.4,7.5-3.4c3.7-1.3,3.5-3.7,4-6.3c0.4-2.4,0.7-4.6,0.8-7.2c-3.4-2-6.5-4.7-9.3-8.1c-4-4.8-6.3-10.2-7.7-14.9
			c-0.9-0.1-1.5-0.2-1.5-0.2c-1.7-0.3-3.3-1-4.6-2.1c-1.7-1.4-2.9-3.2-3.9-5.1c-1.9-3.9-2.8-8.2-2.4-12.5c0.1-1.1,0.3-2.2,0.8-3.2
			c0.8-1.4,2.3-2.4,4-2.7c1.7-0.3,3.5,0.3,4.7,1.4c0,0-3.1-37.2,39.1-37.2C192.2,93.6,189.2,130.8,189.2,130.8z"/>
	</g>
	<g>
		<g>
			<path class="st1" d="M118.6,196.9c2-0.9,4-1.9,6-2.8c0.5-0.2,1-0.4,1.4-0.6c-1.1,0.6,0.4-0.1,0.5-0.2c0.2-0.1,0.4-0.2,0.6-0.3
				c0.5-0.3,1-0.6,1.4-1c1.3-1.2,1.9-2.9,2.2-4.6c0.4-2.4,0.8-4.8,1-7.2c0.1-1.1-1-2-2-2c-1.2,0-1.9,0.9-2,2c-0.2,2-0.5,4-0.8,6
				c-0.1,0.7-0.2,1.4-0.5,2c0.2-0.5-0.1,0.1-0.1,0.2c-0.1,0.1-0.2,0.3-0.3,0.4c0.3-0.4-0.1,0-0.1,0.1c-0.1,0.1-0.2,0.2-0.3,0.2
				c0.1-0.1,0.2-0.1,0,0c-1,0.7-2.2,1.1-3.4,1.6c-1.9,0.9-3.9,1.8-5.8,2.7c-1,0.4-1.2,1.9-0.7,2.7
				C116.4,197.2,117.6,197.4,118.6,196.9L118.6,196.9z"/>
		</g>
	</g>
	<g>
		<g>
			<path class="st1" d="M166.9,180.6c0.2,2.6,0.6,5.2,1.1,7.7c0.5,2.2,1.9,4,3.9,4.9c0.1,0,0.9,0.5,1.1,0.4c0,0-0.6-0.3-0.3-0.1
				c0.2,0.1,0.4,0.2,0.6,0.3c0.8,0.4,1.5,0.7,2.3,1.1c1.9,0.9,3.9,1.8,5.8,2.8c1,0.5,2.2,0.3,2.7-0.7c0.5-0.9,0.3-2.3-0.7-2.7
				c-3-1.4-6-3-9.1-4.3c-0.4-0.2-0.7-0.3-1.1-0.5c-0.1,0-0.6-0.4-0.4-0.3c0.1,0.1-0.3-0.3-0.3-0.3c-0.1-0.2-0.1-0.2,0,0
				c-0.1-0.1-0.1-0.2-0.2-0.3c-0.1-0.1-0.3-0.7-0.1-0.2c-0.1-0.4-0.2-0.7-0.3-1.1c-0.5-2.2-0.8-4.4-1-6.7c-0.1-1.1-0.9-2-2-2
				C167.8,178.6,166.8,179.5,166.9,180.6L166.9,180.6z"/>
		</g>
	</g>
	<g>
		<path class="st2" d="M118.5,113.5c0.2-0.3,0.4-0.7,0.5-1c2.6-4.6,7.7-8.6,12.2-9.9l11.9-2.7c3.6-3.2,8.3-5.8,13.3-5.2
			c4.1,0.5,7.5,3.2,10,6.1c3.4,4,5.7,8.6,7.8,13.3c1.2,2.7,2.3,5.4,4.2,7.7s4.1,3.8,7.3,4.1l3.4,4.8c1.2-1.1,3-1.6,4.7-1.4
			c0.7,0.1,1.4,0.3,1.9,0.7c0.4-1.6,0.7-2.6,0.7-2.6c3.5-13.8,1.7-30.2-7.4-41.1c0,0-3.6-4.1-6.4-7.3c-2.9-0.6-5.6-1.9-8.3-3.5
			c-3.6-2.2-7.6-4.9-11.1-7.3c-6-4-13.5-5.5-20.6-4.3s-13.6,5.3-17.9,11.1l-7.1,6.2c-5.5,2.4-10.4,8.2-12.6,13.2
			c-2.3,5-2.9,7.9-3.3,13.7c-0.5,6.8,0.2,15.5,3.5,21.2c1.7-0.2,3.4,0.3,4.6,1.4l5.5-1.5C115.1,123.4,116.2,118.1,118.5,113.5z"/>
	</g>
	<g>
		<g>
			<path class="st1" d="M190.6,132.2c1.6-1.4,4.5-1.1,5.6,0.9c0.6,1.1,0.6,2.5,0.6,3.7c0,1.4-0.1,2.9-0.3,4.3
				c-1,5-3.6,10.9-9.2,11.9c-1.1,0.2-1.7,1.5-1.4,2.5c0.3,1.1,1.4,1.6,2.5,1.4c7.9-1.4,11.7-10.3,12.4-17.4
				c0.3-3.5,0.2-7.9-2.8-10.3c-3-2.5-7.2-2.2-10.2,0.3C185.8,131,188.7,133.8,190.6,132.2L190.6,132.2z"/>
		</g>
	</g>
	<g>
		<g>
			<path class="st1" d="M185.8,150.5c-0.1,1.7-0.4,3.3-0.9,4.9c-0.2,0.6-0.4,1.2-0.6,1.8c-0.1,0.2-0.4,1.1-0.2,0.6
				c-0.7,1.6-1.6,3.2-2.6,4.7c-2.8,4.5-6.3,8.8-10.5,12.1c-2.3,1.8-4.9,3.3-7.8,3.9c-2.5,0.6-1.4,4.4,1.1,3.9
				c5.9-1.4,10.9-5.6,14.8-10.1c3.2-3.7,6.2-7.8,8.3-12.3c1.3-3,2.3-6.4,2.4-9.7C189.9,147.9,185.9,148,185.8,150.5L185.8,150.5z"/>
		</g>
	</g>
	<g>
		<g>
			<path class="st1" d="M111.4,129.3c-2.9-2.5-7.1-2.7-10.2-0.3c-3,2.4-3.1,6.8-2.8,10.3c0.7,7.1,4.5,16,12.4,17.4
				c1.1,0.2,2.2-0.3,2.5-1.4c0.3-1-0.3-2.3-1.4-2.5c-5.6-1-8.2-6.9-9.2-11.9c-0.3-1.4-0.4-2.7-0.4-4.1c0-1.3,0-2.8,0.6-3.9
				c1.1-2,3.9-2.3,5.6-0.9C110.5,133.8,113.4,131,111.4,129.3L111.4,129.3z"/>
		</g>
	</g>
	<g>
		<g>
			<path class="st1" d="M109.6,150c1.4,8,4.4,15.6,9.7,21.8c5.4,6.3,12.5,11,20.8,11.9c1.1,0.1,2-1,2-2c0-1.2-0.9-1.9-2-2
				c-7.4-0.8-13.6-5.4-18.3-11c-4.7-5.6-7.2-12.6-8.4-19.7c-0.2-1.1-1.5-1.7-2.5-1.4C109.9,147.9,109.5,148.9,109.6,150L109.6,150z"
				/>
		</g>
	</g>
	<g>
		<g>
			<path class="st1" d="M116.8,79.6c-6.6,2.9-11.4,9.2-14.1,15.7c-2.8,6.6-3.4,14-2.8,21.2c0.3,4.3,1.2,8.6,3,12.5
				c0.5,1,1.9,1.2,2.7,0.7c1-0.6,1.2-1.8,0.7-2.7c-2.9-6.1-3-13.5-2.4-20.1c0.5-6.1,2.5-12.1,6.3-16.9c2.3-2.9,5.1-5.4,8.5-7
				c1-0.4,1.2-1.9,0.7-2.7C118.9,79.3,117.8,79.1,116.8,79.6L116.8,79.6z"/>
		</g>
	</g>
	<g>
		<g>
			<path class="st1" d="M130.8,100.7c-5.4,1.7-10.4,5.6-13.3,10.5c-3.2,5.4-4.4,11.9-4,18.1c0.1,2.6,4.1,2.6,4,0
				c-0.5-10.2,3.8-21.5,14.4-24.8C134.3,103.8,133.2,99.9,130.8,100.7L130.8,100.7z"/>
		</g>
	</g>
	<g>
		<g>
			<path class="st1" d="M144.7,101.4c2.7-2.4,6.1-4.5,9.8-4.7c3.6-0.2,6.8,1.6,9.3,4.1c2.9,2.8,5,6.3,6.8,9.8
				c1.8,3.6,3.1,7.6,5.4,11c2.4,3.6,5.6,5.8,9.9,6.4c1.1,0.1,2-1,2-2c0-1.2-0.9-1.9-2-2c-3.8-0.5-6-3.3-7.7-6.5
				c-2-3.8-3.4-7.8-5.5-11.5c-3.8-6.7-10-14-18.5-13.3c-4.7,0.4-8.8,2.8-12.3,5.9C139.9,100.2,142.7,103,144.7,101.4L144.7,101.4z"
				/>
		</g>
	</g>
	<g>
		<g>
			<path class="st1" d="M126.6,76.1c5.2-6.9,13.7-10.9,22.3-10.5c4.6,0.2,9,1.6,12.9,4c4.2,2.6,8.2,5.7,12.5,8.1
				c4.6,2.7,9.8,4.2,15.1,3.6c1.1-0.1,2-0.8,2-2c0-1-0.9-2.1-2-2c-10.6,1.2-18.2-7-26.7-11.8c-8.5-4.8-18.9-5.2-27.7-1.2
				c-4.7,2.2-8.8,5.6-11.9,9.7c-0.6,0.9-0.1,2.2,0.7,2.7C124.9,77.4,126,76.9,126.6,76.1L126.6,76.1z"/>
		</g>
	</g>
	<g>
		<g>
			<path class="st1" d="M187.8,87.7c8.8,10.7,10.1,26.2,6.8,39.2c-0.6,2.5,3.2,3.6,3.9,1.1c3.6-14.5,1.8-31.2-7.9-43.1
				C189,82.9,186.2,85.8,187.8,87.7L187.8,87.7z"/>
		</g>
	</g>
	<g>
		<g>
			<path class="st1" d="M138.9,99.4c0-0.6,0-1.1,0.1-1.7c0-0.3-0.1,0.5,0-0.1c0-0.1,0-0.2,0.1-0.4c0.1-0.3,0.1-0.6,0.2-0.9
				c0.1-0.6,0.3-1.1,0.5-1.6c0.1-0.3-0.2,0.4,0-0.1c0-0.1,0.1-0.2,0.2-0.3c0.1-0.3,0.3-0.5,0.4-0.8c0.3-0.5,0.6-0.9,0.9-1.4
				c0,0,0.3-0.4,0.2-0.2c-0.1,0.2,0.2-0.2,0.2-0.2c0.2-0.2,0.4-0.4,0.5-0.6c0.4-0.4,0.8-0.8,1.3-1.2c0.3-0.2-0.1,0.1,0.1-0.1
				c0.1-0.1,0.2-0.2,0.4-0.3c0.2-0.2,0.5-0.3,0.8-0.5c0.9-0.5,1.3-1.8,0.7-2.7c-0.6-0.9-1.8-1.3-2.7-0.7c-4.8,2.9-7.8,8.3-7.7,13.8
				c0,1,0.9,2,2,2C137.9,101.3,138.9,100.5,138.9,99.4L138.9,99.4z"/>
		</g>
	</g>
	<g>
		<path class="st0" d="M143.6,201.4c-1.4,1.7-2.8,3.5-4.1,5.2c3,2.2,6.7,2.6,9.9,2.6c3.3,0,6.8-0.3,9.9-2.1
			c-2.6-3.5-5.5-7.3-8.2-9.9h-3.7C146.2,198.4,144.9,199.8,143.6,201.4z"/>
	</g>
	<g>
		<path class="st3" d="M71.4,235.8c2.2-6.7,3.6-10.1,5.4-13.3c2.5-4.3,5-8.7,8.7-11.6c4.2-3.3,7.2-5.7,12.5-8
			c4.1-1.7,13.4-5.8,20-8.7c0,0.2,0,0.4,0.1,0.6c0.1,0.4,0.4,0.8,0.7,1.1c4.3,5.9,10.5,11.7,17.7,14.9c0.9-1.3,1.9-2.6,3-4
			c3,2.2,6.7,2.6,9.9,2.6c3.3,0,6.8-0.3,9.9-2.1c0.9,1.2,1.8,2.5,2.7,3.6c7.2-3.2,13.4-9,17.7-14.9c0.3-0.4,0.5-0.7,0.7-1.1
			c0.1-0.2,0.1-0.4,0.1-0.6c6.5,2.8,16.3,7,20.6,8.8c5.3,2.4,8.3,4.8,12.5,8c3.8,2.9,6.3,7.3,8.7,11.6c1.9,3.2,3.2,6.7,5.4,13.3
			H71.4z"/>
	</g>
	<g>
		<g>
			<path class="st1" d="M175.3,193.9c7.5,3.2,14.9,6.5,22.4,9.6c4.1,1.7,8,3.8,11.6,6.5c2.1,1.6,4.2,3.2,5.9,5.2
				c1.8,2.2,3.3,4.7,4.7,7.1c2.5,4.4,4.2,9.1,5.8,14c0.8,2.4,4.7,1.4,3.9-1.1c-3.2-9.7-7.3-20.1-15.6-26.6
				c-4.1-3.2-8.3-6.1-13.2-8.1c-3.7-1.5-7.4-3.1-11.1-4.7c-4.2-1.8-8.3-3.6-12.5-5.4c-1-0.4-2.1-0.3-2.7,0.7
				C174.1,192,174.3,193.5,175.3,193.9L175.3,193.9z"/>
		</g>
	</g>
	<g>
		<g>
			<path class="st1" d="M73.4,236.3c1.4-4.3,2.9-8.7,5.1-12.6c1.4-2.4,2.7-4.8,4.4-7.1c1.7-2.3,3.7-4.1,6-5.8
				c3.8-2.9,7.7-5.2,12.1-7c3.9-1.6,7.7-3.3,11.6-5c4-1.8,8-3.5,12-5.3c1-0.4,1.2-1.9,0.7-2.7c-0.6-1-1.7-1.1-2.7-0.7
				c-7.6,3.3-15.2,6.7-22.9,10c-4.3,1.8-8.6,4.2-12.4,7.1c-2.3,1.8-4.6,3.5-6.4,5.7c-1.9,2.3-3.5,4.9-4.9,7.5
				c-2.7,4.7-4.5,9.8-6.2,14.9C68.7,237.7,72.6,238.7,73.4,236.3L73.4,236.3z"/>
		</g>
	</g>
	<g>
		<path class="st0" d="M160.9,209.2c-3-4-6.5-8.8-9.8-12c-0.3,0.1,10.9-5,15.1-8c2.6-1.8,3.6-3.9,4.5-6.7c2.6,3.3,5.1,6.6,8.9,9.3
			c0.8,0.6,1.1,1.9,0.8,2.9c-0.1,0.4-0.4,0.8-0.7,1.1c-4.3,5.9-10.5,11.7-17.7,14.9C161.7,210.2,161.3,209.7,160.9,209.2z"/>
	</g>
	<g>
		<path class="st0" d="M137.6,209.2c-0.4,0.5-0.7,1-1.1,1.4c-7.2-3.2-13.4-9-17.7-14.9c-0.3-0.4-0.5-0.7-0.7-1.1
			c-0.3-1,0.2-2,0.8-2.9c2.1-3.5,6.5-6.7,8.9-9.1c1.2,3.1,2.9,5.2,5.4,7c4.2,2.9,14.5,7.7,14.2,7.5
			C144.2,200.4,140.6,205.2,137.6,209.2z"/>
	</g>
	<g>
		<g>
			<path class="st1" d="M162.7,208.2c-3.2-4.3-6.3-8.7-10.1-12.4c-0.5-0.5-1.3-0.7-1.9-0.5c0,0,0,0,0,0c0.5,1.2,1,2.4,1.5,3.7
				c1-0.6,2.1-1,3.1-1.5c2.2-1.1,4.3-2.1,6.5-3.3c2-1.1,4.1-2.1,5.9-3.5c2.6-2,4.1-4.6,5.1-7.7c-1.1,0.3-2.2,0.6-3.3,0.9
				c2,2.6,4,5.1,6.4,7.3c0.7,0.6,1.4,1.2,2.1,1.8c0.4,0.3,0.7,0.4,0.6,0.9c0,0.6-0.6,1.1-1,1.5c-0.5,0.6-1,1.2-1.4,1.8
				c-4.2,4.9-9.2,9.1-15.1,11.8c0.9,0.2,1.8,0.5,2.7,0.7C163.4,209.2,163,208.7,162.7,208.2c-0.6-0.9-1.7-1.3-2.7-0.7
				c-0.9,0.5-1.4,1.9-0.7,2.7c0.4,0.5,0.7,1,1.1,1.5c0.7,0.9,1.7,1.2,2.7,0.7c6.8-3.1,12.6-8.1,17.2-14c1.1-1.4,2.3-2.8,2.3-4.7
				c0-2-1.2-3.1-2.6-4.2c-3-2.4-5.4-5.4-7.8-8.5c-1-1.3-2.9-0.4-3.3,0.9c-0.8,2.5-1.9,4.5-4.2,6c-1.8,1.2-3.8,2.2-5.8,3.3
				c-1.9,1-3.9,2-5.9,2.9c-0.9,0.5-2,0.8-2.9,1.4c-1.9,1.1-0.7,4.4,1.5,3.7c0,0,0,0,0,0c-0.6-0.2-1.3-0.3-1.9-0.5
				c3.5,3.5,6.5,7.6,9.5,11.6c0.6,0.9,1.7,1.3,2.7,0.7C162.8,210.4,163.3,209,162.7,208.2z"/>
		</g>
	</g>
	<g>
		<g>
			<path class="st1" d="M135.9,208.2c-0.4,0.5-0.7,1-1.1,1.4c0.9-0.2,1.8-0.5,2.7-0.7c-6-2.7-11.1-7-15.4-12.1
				c-0.5-0.6-1-1.2-1.4-1.8c-0.5-0.7-0.8-0.9-0.4-1.7c0.6-1.3,1.6-2.4,2.6-3.4c2-2.1,4.3-3.9,6.4-5.9c-1.1-0.3-2.2-0.6-3.3-0.9
				c1.2,2.9,2.8,5.5,5.3,7.4c1.8,1.4,3.9,2.6,5.9,3.7c2,1.1,4.1,2.1,6.2,3.2c1,0.5,2.1,0.9,3.1,1.5c0.5-1.2,1-2.4,1.5-3.7
				c0,0,0,0,0,0c-0.7-0.2-1.5,0-1.9,0.5C142.2,199.5,139.1,203.9,135.9,208.2c-0.6,0.9-0.1,2.2,0.7,2.7c1,0.6,2.1,0.2,2.7-0.7
				c3-4,5.9-8.1,9.5-11.7c-0.6,0.2-1.3,0.3-1.9,0.5c0,0,0,0,0,0c2.2,0.7,3.5-2.5,1.5-3.7c-0.8-0.5-1.8-0.8-2.6-1.2
				c-2-0.9-3.9-1.9-5.8-2.9c-4.2-2.2-8.4-4.5-10.2-9.1c-0.5-1.4-2.2-2-3.3-0.9c-2.3,2.3-5,4.3-7.2,6.7c-1.2,1.3-2.4,2.9-3,4.6
				c-0.7,2.2,0.5,3.8,1.8,5.5c4.6,5.9,10.5,11.2,17.4,14.3c1.1,0.5,2,0.2,2.7-0.7c0.4-0.5,0.7-1,1.1-1.4c0.6-0.9,0.1-2.2-0.7-2.7
				C137.6,206.9,136.5,207.3,135.9,208.2z"/>
		</g>
	</g>
	<g>
		<g>
			<path class="st1" d="M139.9,209.2c3.1,1.6,6.4,2,9.8,2c3.5,0,7-0.5,10.1-2.1c2.3-1.2,0.3-4.6-2-3.5c-2.5,1.3-5.3,1.5-8.1,1.6
				c-2.7,0-5.4-0.2-7.8-1.4C139.7,204.6,137.6,208,139.9,209.2L139.9,209.2z"/>
		</g>
	</g>
	<g id="face_31_">
		<g>
			<g>
				<path class="st1" d="M142.4,162.7c2.4,1.3,4.9,1.8,7.6,1.8c2.7,0,5.5-0.6,7.7-2.3c0.9-0.7,0.7-2.1,0-2.8c-0.8-0.8-2-0.7-2.8,0
					c0.6-0.5,0.1-0.1,0,0c-0.2,0.1-0.3,0.2-0.5,0.3c-0.1,0-0.2,0.1-0.3,0.1c-0.3,0.2,0.1-0.1,0.1,0c0,0-0.6,0.2-0.7,0.2
					c-0.6,0.2-1.2,0.3-1.8,0.4c0.3,0,0,0-0.2,0c-0.2,0-0.4,0-0.5,0c-0.4,0-0.9,0-1.3,0c-0.4,0-0.8,0-1.2,0c-0.2,0-0.4,0-0.5,0
					c0,0-0.7-0.1-0.3,0c-0.6-0.1-1.1-0.2-1.7-0.4c-0.2-0.1-0.5-0.2-0.7-0.2c-0.5-0.2,0.3,0.2-0.2-0.1c-0.3-0.1-0.6-0.3-0.9-0.4
					c-0.9-0.5-2.2-0.3-2.7,0.7C141.2,160.8,141.4,162.1,142.4,162.7L142.4,162.7z"/>
			</g>
		</g>
		<g>
			<g>
				<path class="st1" d="M149,144.7c0.3,1.3,0.7,2.6,0.8,3.9c0-0.2,0-0.4-0.1-0.5c0,0.2,0,0.4,0,0.5c0-0.2,0-0.4,0.1-0.5
					c0,0.1,0,0.2-0.1,0.2c0.1-0.2,0.1-0.3,0.2-0.5c0,0.1-0.1,0.1-0.1,0.2c0.1-0.1,0.2-0.3,0.3-0.4c0,0-0.1,0.1-0.1,0.1
					c0.1-0.1,0.3-0.2,0.4-0.3c-0.1,0.1-0.2,0.1-0.3,0.2c0.2-0.1,0.3-0.1,0.5-0.2c-0.2,0.1-0.3,0.1-0.5,0.2c0.2,0,0.4,0,0.5-0.1
					c-0.2,0-0.3,0-0.5,0c0.2,0,0.4,0,0.5,0.1c-0.2,0-0.4-0.1-0.5-0.1c-0.3-0.1-0.5-0.1-0.8,0c-0.3,0-0.5,0.1-0.7,0.2
					c-0.4,0.2-0.8,0.7-0.9,1.2c-0.1,0.5-0.1,1.1,0.2,1.5c0.3,0.4,0.7,0.9,1.2,0.9c0.4,0.1,0.8,0.2,1.2,0.2c0.7,0,1.3-0.2,1.8-0.4
					c0.7-0.3,1.3-1,1.5-1.8c0.2-0.7,0.1-1.2,0-1.9c-0.2-1.2-0.5-2.5-0.8-3.7c-0.3-1-1.4-1.7-2.5-1.4
					C149.3,142.6,148.7,143.6,149,144.7L149,144.7z"/>
			</g>
		</g>
		<g>
			<path class="st1" d="M128.6,133.8c-0.6,2.1-0.2,6.9,3.7,7.3c5.2,0,5.5-5.8,3.8-8.6C134.7,130.3,130.4,129.3,128.6,133.8z"/>
		</g>
		<g>
			<path class="st1" d="M170.6,133.8c0.6,2.1,0.2,6.9-3.7,7.3c-5.2,0-5.5-5.8-3.8-8.6C164.5,130.3,168.8,129.3,170.6,133.8z"/>
		</g>
	</g>
</g>
</svg>
