<?xml version="1.0" encoding="utf-8"?>
<!-- Generator: Adobe Illustrator 27.6.1, SVG Export Plug-In . SVG Version: 6.00 Build 0)  -->
<svg version="1.1" xmlns="http://www.w3.org/2000/svg" xmlns:xlink="http://www.w3.org/1999/xlink" x="0px" y="0px"
	 viewBox="0 0 540 540" style="enable-background:new 0 0 540 540;" xml:space="preserve">
<style type="text/css">
	.st0{fill:#FFFFFF;}
	.st1{fill:#A98A75;}
	.st2{fill:#211715;}
	.st3{fill:#6AA0B2;}
</style>
<g id="layer">
	<g id="group">
		<g>
			<path class="st0" d="M276.37,349.77c6.57,20.87,15.19,48.35,19.89,63.37c0.83,2.65-0.39,5.32-2.57,6.58c0,0-0.27,0.15-0.54,0.31
				c0.28-0.12,0.57-0.24,0.57-0.24c12.08-5.04,51.21-22.42,58.62-25.83l-4.46-9.95C347.88,384,287.27,353.6,276.37,349.77z"/>
		</g>
		<g>
			<path class="st1" d="M246.82,244.16c-6.24,1.21-12.29-8.03-12.47-12.71c-0.65-17.16,2.6-30.4-0.86-49.7
				c-1.21-25.17,5.01-40.35,17.85-51.04c6.49-5.41,18.57-11.72,34.26-11.2c9.15,0.31,15.66,2.07,21.79,4.64
				c3.03,1.1,6.19,3.08,9.25,5.42l6.12,5.2c0.09,0.07,0.17,0.15,0.23,0.23c7.47,7.75,13.61,20.24,13.84,32.1
				c0.09,4.17,0.03,15.27,0.14,18.72c0.35,10.79,2.49,20.5,5.08,30.21c1.27,4.8,3.27,9.38,2.88,16.31c-0.2,3.54-1.63,8.08-6.1,10.36
				L246.82,244.16z"/>
		</g>
		<g>
			<path class="st0" d="M290.37,155.42c1.66,4.64,4.04,9.9,5.58,12.93c2.46,4.85,8.82,13.08,14.35,15.58l10.11,2.6
				c1.44-1.09,3.28-1.39,4.81-1.2c3.33,0.41,4.6,2.27,5.12,3.33c1.55,3.19,0.97,8.74-0.58,12.07c-1.09,2.36-2.75,5.63-6.42,7.99
				c-1.08,0.69-3.75,1.69-6.34,1.63c-0.21,0.54-0.36,0.92-0.36,0.92c-0.76,1.7-2.59,4.7-2.59,4.7c-0.77,1.21-1.57,2.4-2.42,3.57
				c0.03,0.19,0.04,0.29,0.04,0.29c0.2,1.1,0.8,4.22,1.26,5.24c0.98,2.19,2.74,4.06,4.83,5.24c1.69,0.95,4.27,1.99,6.65,2.88
				c-11.16,10.65-26.69,20.46-42.52,21.38c-4.93,0.29-10.02-0.19-14.47-2.34c-4.45-2.15-8.18-6.15-9.11-11.01c0,0,0-2.81,0-5.93
				c-2.19-1.1-4.32-2.47-6.43-4.1c-7.56-5.86-11.04-15.32-12.48-25.85c-0.86-6.28-1.64-13.13-2.75-19.95c1.25-0.85,2.38-1.75,3-2.24
				c7.3-5.71,15.1-12.75,22.22-19.4c-0.2,2.98-0.52,5.84-1,8.83c-0.12,0.75,0.59,1.38,1.32,1.14c11.16-3.8,21.42-10.31,28.09-18.54"
				/>
		</g>
		<g>
			<g>
				<path class="st2" d="M321.07,136.46c5.43,5.27,9.33,12.54,11.53,19.73c1.11,3.65,1.77,7.38,1.85,11.19
					c0.05,2.78,0.05,5.56,0.06,8.34c0.02,6.84,0.06,13.61,0.96,20.41c1.1,8.29,3.06,16.44,5.43,24.46
					c1.88,6.38,3.93,16.2-3.25,20.03c-2.73,1.45-0.3,5.6,2.42,4.14c7.4-3.95,8.1-12.81,6.76-20.2c-0.66-3.63-1.92-7.13-2.85-10.7
					c-1.16-4.43-2.21-8.89-3.02-13.4c-1.32-7.39-1.63-14.76-1.65-22.25c-0.02-6.93,0.3-13.91-1.36-20.69
					c-2.18-8.9-6.86-18.03-13.48-24.45C322.24,130.92,318.85,134.31,321.07,136.46L321.07,136.46z"/>
			</g>
		</g>
		<g>
			<g>
				<path class="st2" d="M317.86,127.5c-11.91-9.03-28.33-11.96-42.93-9.7c-11.81,1.83-23.01,7.65-30.9,16.67
					c-7.85,8.98-11.53,20.3-12.67,32.03c-0.34,3.56-0.46,7.13-0.41,10.71c0.03,2.07,0.05,4.12,0.4,6.16
					c0.35,2.04,0.62,4.09,0.83,6.15c0.75,7.48,0.56,14.97,0.19,22.46c-0.18,3.61-0.37,7.22-0.46,10.83
					c-0.08,3.42-0.4,7.15,0.29,10.51c1.1,5.36,5.51,11.22,10.82,12.92c1.46,0.47,2.94,0.48,4.44,0.23c1.28-0.22,1.99-1.79,1.68-2.95
					c-0.37-1.35-1.67-1.89-2.95-1.68c-0.67,0.11-1.72-0.09-2.51-0.47c-1.07-0.52-1.97-1.26-2.8-2.11c-1.68-1.71-3.07-3.92-3.75-6.1
					c-0.08-0.25-0.15-0.5-0.21-0.75c-0.03-0.14-0.16-0.8-0.14-0.62c0.03,0.2-0.02-0.46-0.03-0.56c-0.02-0.5-0.03-1.01-0.05-1.51
					c-0.04-1.75-0.05-3.51-0.02-5.26c0.05-3.43,0.21-6.86,0.38-10.29c0.35-7.03,0.68-14.06,0.22-21.09
					c-0.12-1.88-0.3-3.75-0.52-5.62c-0.25-2.05-0.71-4.1-0.88-6.15c-0.29-3.5-0.18-7.11-0.01-10.62
					c0.53-10.88,3.12-21.68,9.68-30.52c6.17-8.32,15.34-14.05,25.52-16.69c6.95-1.8,14.22-2.01,21.32-1.03
					c6.14,0.85,12.63,2.66,18.02,5.78c1.75,1.01,3.41,2.18,5.02,3.4c1.03,0.78,2.68,0.16,3.28-0.86
					C319.44,129.55,318.89,128.28,317.86,127.5L317.86,127.5z"/>
			</g>
		</g>
		<g>
			<g>
				<path class="st2" d="M305.48,229.93c3.32-2.97,6.22-6.32,8.78-9.96c1.66-2.36,3.25-4.85,4.45-7.48
					c0.54-1.18,0.34-2.58-0.86-3.28c-1.03-0.6-2.74-0.32-3.28,0.86c-1.16,2.54-2.69,4.96-4.29,7.25c-2.32,3.34-5.07,6.43-8.19,9.22
					c-0.97,0.86-0.88,2.51,0,3.39C303.04,230.89,304.51,230.79,305.48,229.93L305.48,229.93z"/>
			</g>
		</g>
		<g>
			<g>
				<path class="st2" d="M293.98,231.06c-10.24,5.04-22.46,7.69-33.27,2.74c-4.95-2.27-9.58-5.61-12.64-10.18
					c-3.08-4.59-4.75-9.93-5.78-15.32c-1.43-7.55-2.02-15.27-3.23-22.86c-0.2-1.28-1.8-1.99-2.95-1.68
					c-1.37,0.38-1.88,1.67-1.68,2.95c1.14,7.2,1.78,14.49,3.01,21.67c1.02,5.94,2.82,11.92,6.08,17.05
					c6.64,10.45,19.34,16.33,31.56,15.77c7.53-0.34,14.6-2.7,21.32-6c1.16-0.57,1.48-2.22,0.86-3.28
					C296.57,230.74,295.14,230.49,293.98,231.06L293.98,231.06z"/>
			</g>
		</g>
		<g>
			<g>
				<path class="st2" d="M321.61,188.6c1.35-0.95,2.9-1.16,4.46-0.64c0.65,0.22,1.03,0.46,1.43,0.82c0.08,0.07,0.51,0.57,0.21,0.18
					c0.15,0.2,0.29,0.41,0.4,0.63c1.34,2.48,0.78,6.21-0.04,8.83c-0.87,2.78-2.58,5.51-4.82,7.39c-1.89,1.58-5.37,2.94-7.92,1.86
					c-1.19-0.51-2.57-0.36-3.28,0.86c-0.59,1.01-0.34,2.77,0.86,3.28c3.5,1.49,7.37,1.01,10.76-0.57c3.1-1.44,5.56-4.39,7.17-7.33
					c1.65-3.01,2.62-6.21,2.78-9.64c0.14-3.08-0.4-6.52-2.65-8.81c-2.98-3.03-8.34-3.44-11.79-1.01c-1.06,0.75-1.55,2.1-0.86,3.28
					C318.94,188.78,320.55,189.35,321.61,188.6L321.61,188.6z"/>
			</g>
		</g>
		<g>
			<path class="st2" d="M289.74,190.66c0.74,2.11,0.5,7.03-3.53,7.6c-5.34,0.17-5.85-5.75-4.16-8.61
				C283.44,187.31,287.73,186.2,289.74,190.66z"/>
		</g>
		<g>
			<path class="st2" d="M257.57,190.95c0.68,2.05,0.48,6.82-3.21,7.36c-4.9,0.15-5.39-5.6-3.85-8.37
				C251.77,187.68,255.71,186.62,257.57,190.95z"/>
		</g>
		<g>
			<g>
				<path class="st2" d="M265.74,200.47c-0.74,1.37-1.44,2.78-2.03,4.22c0.08-0.19,0.16-0.38,0.24-0.57
					c-0.32,0.71-0.6,1.38-0.6,2.17c-0.01,0.96,0.42,1.86,1.16,2.46c0.57,0.46,1.19,0.87,1.93,1.01c0.47,0.09,0.93,0.1,1.4,0.15
					c0.57,0.06,1.31-0.31,1.7-0.7c0.42-0.42,0.73-1.1,0.7-1.7c-0.03-0.62-0.23-1.26-0.7-1.7c-0.5-0.46-1.03-0.63-1.7-0.7
					c-0.23-0.02-0.46-0.02-0.69-0.05c0.21,0.03,0.43,0.06,0.64,0.09c-0.17-0.03-0.32-0.07-0.48-0.13c0.19,0.08,0.38,0.16,0.57,0.24
					c-0.16-0.07-0.31-0.16-0.46-0.27c0.16,0.13,0.32,0.25,0.49,0.38c-0.11-0.08-0.21-0.17-0.3-0.27c0.13,0.16,0.25,0.32,0.38,0.49
					c-0.03-0.04-0.06-0.08-0.08-0.13c0.08,0.19,0.16,0.38,0.24,0.57c-0.03-0.07-0.05-0.14-0.06-0.21c0.03,0.21,0.06,0.43,0.09,0.64
					c-0.01-0.11-0.01-0.21,0-0.31c-0.03,0.21-0.06,0.43-0.09,0.64c0.04-0.23,0.11-0.44,0.2-0.65c-0.08,0.19-0.16,0.38-0.24,0.57
					c0.12-0.28,0.24-0.56,0.36-0.84c-0.08,0.19-0.16,0.38-0.24,0.57c0.51-1.21,1.12-2.38,1.75-3.53c0.3-0.56,0.41-1.23,0.24-1.85
					c-0.15-0.56-0.58-1.16-1.1-1.43C267.9,199.02,266.37,199.29,265.74,200.47L265.74,200.47z"/>
			</g>
		</g>
		<g>
			<g>
				<path class="st2" d="M288.05,156.06c2.13,5.9,4.55,12.05,8.08,17.28c3.27,4.84,7.54,10.14,12.95,12.67
					c1.17,0.55,2.59,0.33,3.28-0.86c0.61-1.04,0.32-2.73-0.86-3.28c-4.79-2.24-8.55-6.91-11.42-11.22
					c-3.21-4.82-5.45-10.42-7.41-15.85c-0.44-1.22-1.63-2.04-2.95-1.68C288.55,153.43,287.61,154.83,288.05,156.06L288.05,156.06z"
					/>
			</g>
		</g>
		<g>
			<g>
				<path class="st2" d="M288.57,153.47c-3.42,4.18-7.52,7.74-12.05,10.67c-2.37,1.54-4.85,2.92-7.4,4.15
					c-1.2,0.58-2.41,1.13-3.64,1.63c-1.35,0.55-2.82,1.27-4.25,1.52c0.43,0,0.85,0,1.28,0c0.46,1.42,0.72,1.77,0.78,1.05
					c0.02-0.16,0.05-0.31,0.07-0.47c0.06-0.39,0.11-0.78,0.17-1.16c0.11-0.83,0.22-1.66,0.32-2.49c0.18-1.54,0.31-3.09,0.42-4.64
					c0.15-2.18-2.67-3.03-4.1-1.7c-4.27,3.98-8.57,7.92-12.98,11.74c-4.03,3.5-8.1,7.16-12.58,10.07c-2.58,1.67-0.18,5.83,2.42,4.14
					c4.69-3.04,8.98-6.86,13.2-10.52c4.53-3.92,8.95-7.96,13.33-12.05c-1.37-0.57-2.73-1.13-4.1-1.7c-0.16,2.27-0.37,4.53-0.7,6.78
					c-0.19,1.31-0.57,2.61,0.11,3.86c0.49,0.91,1.37,1.49,2.36,1.7c1.12,0.23,2.14-0.24,3.17-0.61c1.05-0.39,2.1-0.8,3.13-1.23
					c1.93-0.81,3.83-1.67,5.69-2.63c7.08-3.65,13.68-8.55,18.74-14.74c0.82-1,0.98-2.41,0-3.39
					C291.11,152.63,289.39,152.47,288.57,153.47L288.57,153.47z"/>
			</g>
		</g>
		<g>
			<g>
				<path class="st2" d="M309.35,220.47c0.27,1.47,0.55,2.94,0.96,4.38c0.58,2.02,1.81,3.86,3.31,5.32
					c1.53,1.49,3.34,2.51,5.28,3.37c2.13,0.94,4.32,1.77,6.51,2.57c1.18,0.43,2.68-0.48,2.95-1.68c0.31-1.35-0.41-2.49-1.68-2.95
					c-0.97-0.35-1.94-0.71-2.91-1.08c-0.46-0.18-0.92-0.36-1.37-0.54c-0.23-0.09-0.45-0.18-0.67-0.28c0.38,0.16-0.22-0.1-0.3-0.13
					c-0.84-0.37-1.67-0.75-2.47-1.21c-0.39-0.22-0.77-0.47-1.14-0.73c0.36,0.26-0.16-0.13-0.23-0.19c-0.2-0.17-0.4-0.35-0.59-0.54
					c-0.35-0.34-0.69-0.71-0.99-1.1c0.25,0.32-0.11-0.18-0.16-0.25c-0.13-0.19-0.25-0.38-0.36-0.57c-0.11-0.19-0.22-0.39-0.32-0.59
					c-0.07-0.13-0.13-0.27-0.19-0.41c0.05,0.12,0.11,0.25,0.16,0.37c0.03-0.22-0.22-0.68-0.28-0.89c-0.37-1.36-0.64-2.75-0.9-4.14
					c-0.22-1.24-1.8-2.05-2.95-1.68C309.7,217.95,309.11,219.14,309.35,220.47L309.35,220.47z"/>
			</g>
		</g>
		<g>
			<g>
				<path class="st2" d="M267.62,221.41c0.09-0.04,0.18-0.09,0.27-0.13c0.34-0.17-0.15,0.06-0.15,0.06c0-0.04,0.55-0.2,0.61-0.22
					c0.46-0.15,0.94-0.26,1.42-0.35c0.12-0.02,0.23-0.04,0.35-0.06c0.34-0.07-0.45,0.05-0.1,0.01c0.24-0.02,0.48-0.05,0.73-0.07
					c0.52-0.04,1.04-0.05,1.56-0.03c0.24,0.01,0.48,0.02,0.72,0.04c0.12,0.01,0.24,0.02,0.36,0.03c0.35,0.03-0.01,0.05-0.12-0.02
					c0.15,0.09,0.5,0.09,0.67,0.12c0.21,0.05,0.43,0.1,0.64,0.16c0.2,0.06,0.4,0.13,0.6,0.2c0.06,0.02,0.56,0.22,0.25,0.1
					c-0.28-0.11,0.13,0.06,0.17,0.08c0.56,0.25,1.09,0.54,1.62,0.85c1.08,0.64,2.68,0.28,3.28-0.86c0.61-1.16,0.29-2.6-0.86-3.28
					c-2.28-1.34-4.69-2.14-7.34-2.22c-2.42-0.08-4.93,0.34-7.1,1.44c-1.12,0.57-1.53,2.24-0.86,3.28
					C265.07,221.69,266.42,222.02,267.62,221.41L267.62,221.41z"/>
			</g>
		</g>
		<g>
			<g>
				<path class="st2" d="M295.76,181.35c-0.19-0.01-0.37-0.03-0.56-0.05c0.21,0.03,0.43,0.06,0.64,0.09c-0.51-0.07-1-0.21-1.48-0.41
					c0.19,0.08,0.38,0.16,0.57,0.24c-0.5-0.21-0.96-0.48-1.39-0.8c0.16,0.13,0.32,0.25,0.49,0.38c-0.39-0.3-0.74-0.65-1.04-1.03
					c-0.36-0.45-1.15-0.7-1.7-0.7c-0.59,0-1.29,0.26-1.7,0.7c-0.42,0.46-0.73,1.06-0.7,1.7c0.03,0.21,0.06,0.43,0.09,0.64
					c0.11,0.41,0.32,0.76,0.62,1.06c0.28,0.35,0.59,0.66,0.93,0.94c0.5,0.4,1,0.79,1.57,1.08c1.16,0.59,2.36,0.91,3.66,0.97
					c0.6,0.03,1.28-0.29,1.7-0.7c0.42-0.42,0.73-1.1,0.7-1.7c-0.03-0.62-0.23-1.26-0.7-1.7
					C296.98,181.61,296.42,181.38,295.76,181.35L295.76,181.35z"/>
			</g>
		</g>
		<g>
			<path class="st3" d="M381.08,308.38c-1.07-4.33-2.22-8.5-3.34-12.65c-2.22-8.22-7.7-29.21-15.56-40.54
				c-8.95-12.91-21.6-17.66-37.54-22.24c-11.17,10.74-26.82,20.68-42.76,21.61c-4.93,0.29-10.02-0.19-14.47-2.34
				c-4.45-2.15-8.18-6.15-9.11-11.01c0,0-0.33-1.73-0.85-4.23c-0.51,0.17-0.92,0.32-1.15,0.42c-7.55,2.6-15.89,6.61-20,11.38
				c-6.28,7.29-9.55,17.24-10.89,23.74c-1.04,5.11-6.22,25.2-8.43,38.97c-0.92,5.7-0.23,10.12,0.77,12.79c0,0,0.11,0.25,0.28,0.65
				c18.21,0.08,34.54,0.15,44.2,0.21c3.82,0.03,7.18,2.5,8.33,6.14c3.01,9.52,7.92,25.11,12.85,40.82
				c3.13-4.01,5.96-8.43,9.82-11.82c2.88-2.53,6.41-4.48,10.23-4.81c1.58-0.14,3.17,0,4.75,0.16c3,0.31,6,0.7,8.98,1.17
				c5.42,0.86,11.49,1.88,15.83-1.79c6.67,5.9,12.61,18.63,14.87,28.98c7.88-2.97,19.89-8.28,27.66-14.52
				c6.12-4.92,8.5-10.08,10-14.87c0.87-2.78,1.39-9.65,1.31-12.72c-0.11-3.83-1.83-14.19-2.75-19.29
				C383.24,317.6,382.2,312.9,381.08,308.38z"/>
		</g>
		<g>
			<path class="st0" d="M323.45,388.45c-4.15,3.34-7.29,7.87-11.59,12.35c-0.62,0.64-3.15,2.33-5.1,0.83
				c-1.28-0.99-1.47-3.48-1-4.49c2.53-5.53,3.56-7.2,5.44-11.07c-2.29,2.41-4.08,4.43-6.79,7.17c-0.92,0.93-1.84,1.86-2.76,2.79
				c-2.72,2.75-5.43,5.49-8.15,8.24c-2.9-9.26-6.51-20.75-10.09-32.18c3.13-4.01,5.96-8.43,9.82-11.82
				c2.88-2.53,6.41-4.48,10.23-4.81c1.58-0.14,3.17,0,4.75,0.16c3,0.31,6,0.7,8.98,1.17c5.42,0.86,11.5,1.88,15.84-1.79
				c5.62,4.97,10.72,14.79,13.54,23.95c-1.13,0.57-1.89,1-2.91,1.7c-0.63,0.43-2.64,2.22-3.31,2.58
				c-5.59,3.04-11.24,4.45-16.55,5.11"/>
		</g>
		<g>
			<g>
				<path class="st2" d="M383.63,365.08c6.59,0,13.18-0.02,19.77-0.02c10.34-0.01,20.68-0.03,31.02-0.04c2.59,0,5.17-0.01,7.76-0.01
					c3.09,0,3.09-4.8,0-4.8c-6.76,0-13.52,0.02-20.28,0.02c-10.29,0.01-20.59,0.03-30.88,0.04c-2.46,0-4.93,0.01-7.39,0.01
					C380.54,360.28,380.53,365.08,383.63,365.08L383.63,365.08z"/>
			</g>
		</g>
		<g>
			<g>
				<path class="st2" d="M97.82,365.09c11.85,0,23.7-0.05,35.56-0.07c1.88,0,3.75-0.01,5.63-0.01c3.09,0,3.09-4.8,0-4.8
					c-11.99,0-23.98,0.05-35.96,0.07c-1.74,0-3.48,0.01-5.22,0.01C94.73,360.29,94.72,365.09,97.82,365.09L97.82,365.09z"/>
			</g>
		</g>
		<g>
			<g>
				<path class="st2" d="M332.47,349.48c4.93-2.09,9.66-4.52,14.47-6.85c1.13-0.55,1.53-2.25,0.86-3.28
					c-0.75-1.16-2.07-1.45-3.28-0.86c-4.81,2.33-9.55,4.77-14.47,6.85c-1.16,0.49-1.5,2.29-0.86,3.28
					C329.96,349.82,331.22,350,332.47,349.48L332.47,349.48z"/>
			</g>
		</g>
		<g>
			<g>
				<path class="st2" d="M330.88,353.64c-3.41,2.18-7.64,1.69-11.45,1.11c-4.72-0.72-9.54-1.66-14.32-1.73
					c-9.75-0.14-16.15,7.64-21.44,14.77c-0.77,1.04-0.17,2.68,0.86,3.28c1.22,0.72,2.51,0.18,3.28-0.86
					c2.5-3.37,5.09-6.93,8.55-9.39c1.62-1.15,3.38-2.09,5.31-2.61c2.07-0.55,4.18-0.41,6.29-0.2c4.45,0.44,8.84,1.28,13.29,1.79
					c4.13,0.47,8.46,0.28,12.06-2.02C335.9,356.13,333.5,351.97,330.88,353.64L330.88,353.64z"/>
			</g>
		</g>
		<g>
			<g>
				<path class="st2" d="M293.82,371.12c-2.45,2.43-4.89,4.85-7.34,7.28c-0.89,0.89-0.95,2.52,0,3.39c0.96,0.88,2.44,0.94,3.39,0
					c2.45-2.43,4.89-4.85,7.34-7.28c0.89-0.89,0.95-2.52,0-3.39C296.26,370.23,294.78,370.17,293.82,371.12L293.82,371.12z"/>
			</g>
		</g>
		<g>
			<g>
				<path class="st2" d="M294.5,392c3.7-4.33,7.76-8.35,11.8-12.35c0.89-0.88,0.95-2.52,0-3.39c-0.96-0.88-2.44-0.94-3.39,0
					c-4.05,4-8.1,8.02-11.8,12.35c-0.82,0.95-1.01,2.47,0,3.39C292.01,392.82,293.63,393.02,294.5,392L294.5,392z"/>
			</g>
		</g>
		<g>
			<g>
				<path class="st2" d="M299.86,401.25c2.73-2.76,5.49-5.48,8.16-8.29c2.36-2.48,4.65-5.02,7.06-7.46c0.91-0.92,0.92-2.47,0-3.39
					c-0.91-0.91-2.48-0.93-3.39,0c-2.41,2.44-4.7,4.98-7.06,7.46c-2.67,2.81-5.44,5.53-8.16,8.29c-0.91,0.92-0.92,2.47,0,3.39
					C297.39,402.16,298.95,402.17,299.86,401.25L299.86,401.25z"/>
			</g>
		</g>
		<g>
			<g>
				<path class="st2" d="M323.78,390.76c4.93-0.63,9.67-1.77,14.25-3.74c1.94-0.84,3.7-1.74,5.34-3.07
					c0.33-0.27,0.66-0.54,0.98-0.81c0.16-0.13,0.32-0.26,0.48-0.39c0.31-0.25-0.27,0.19-0.04,0.03c0.96-0.66,1.95-1.23,2.99-1.75
					c1.16-0.58,1.49-2.21,0.86-3.28c-0.69-1.18-2.12-1.45-3.28-0.86c-1.68,0.85-3.17,1.85-4.62,3.04c-0.59,0.48-0.98,0.84-1.43,1.13
					c-0.91,0.59-1.95,1.04-2.93,1.48c-3.96,1.79-8.3,2.88-12.6,3.43c-1.29,0.16-2.4,0.99-2.4,2.4
					C321.38,389.53,322.49,390.93,323.78,390.76L323.78,390.76z"/>
			</g>
		</g>
		<g>
			<g>
				<path class="st2" d="M330.45,355.99c3.87,2.88,6.68,7.51,8.92,11.77c2.66,5.05,4.68,10.45,6,16c0.72,3,5.35,1.73,4.63-1.28
					c-1.45-6.07-3.73-12-6.67-17.5c-2.64-4.94-5.92-9.75-10.46-13.13c-1.04-0.78-2.68-0.17-3.28,0.86
					C328.87,353.93,329.4,355.21,330.45,355.99L330.45,355.99z"/>
			</g>
		</g>
		<g>
			<g>
				<path class="st2" d="M308.4,386.32c-0.98,1.96-2,3.9-2.96,5.87c-0.69,1.43-1.51,2.88-2.03,4.38c-0.42,1.22-0.35,2.66-0.03,3.9
					c0.87,3.35,4.3,4.98,7.5,3.71c2.88-1.15,4.78-3.93,6.75-6.21c2.36-2.74,4.71-5.52,7.53-7.82c1.01-0.82,0.85-2.54,0-3.39
					c-1-1-2.39-0.82-3.39,0c-4.42,3.6-7.65,8.36-11.63,12.39c-0.06,0.06-0.4,0.33-0.14,0.13c0.29-0.21-0.31,0.18-0.38,0.22
					c-0.11,0.06-0.57,0.27-0.22,0.13c-0.14,0.05-0.71,0.22-0.58,0.2c-0.32,0.06-0.3,0.07-0.61-0.11c0.23,0.14-0.13-0.23,0.08,0.1
					c-0.08-0.12-0.15-0.24-0.21-0.37c0.11,0.22,0.05,0.15,0-0.04c-0.05-0.22-0.12-0.43-0.15-0.65c0.08,0.46,0.02-0.17,0.01-0.32
					c0-0.1,0.02-0.2,0.01-0.3c0,0.05-0.12,0.4-0.03,0.18c0.03-0.07,0.03-0.17,0.06-0.25c0.12-0.35-0.11,0.21,0.07-0.18
					c0.53-1.13,1.05-2.26,1.6-3.39c0.94-1.93,1.94-3.83,2.91-5.76c0.58-1.16,0.31-2.6-0.86-3.28
					C310.62,384.84,308.98,385.16,308.4,386.32L308.4,386.32z"/>
			</g>
		</g>
		<g>
			<g>
				<path class="st2" d="M294.36,422.1c7.83-3.27,15.59-6.7,23.36-10.12c8.97-3.94,17.92-7.91,26.87-11.91
					c2.99-1.34,5.99-2.67,8.97-4.04c1.18-0.54,1.47-2.24,0.86-3.28c-0.71-1.21-2.1-1.4-3.28-0.86
					c-15.65,7.19-31.45,14.07-47.24,20.94c-2.11,0.92-4.23,1.84-6.35,2.75c-0.89,0.38-1.77,0.76-2.66,1.14
					c-0.2,0.08-1.36,0.57-0.76,0.32c-0.35,0.15-0.7,0.29-1.05,0.44c-1.2,0.5-2.05,1.59-1.68,2.95
					C291.71,421.56,293.15,422.61,294.36,422.1L294.36,422.1z"/>
			</g>
		</g>
		<g>
			<path class="st0" d="M136.05,324.31c30.79,0.51,101.07,0.67,126.17,0.84c3.82,0.03,7.18,2.5,8.33,6.14
				c5.97,18.89,19.4,61.64,25.72,81.86c1.14,3.64-1.59,7.33-5.4,7.32c-27.19-0.1-100.46-0.36-128.63-0.93
				c-2.43-0.05-4.55-1.64-5.26-3.96c-5.56-17.96-19.82-63.23-26.39-83.91C129.41,327.98,132.19,324.24,136.05,324.31z"/>
		</g>
		<g>
			<g>
				<path class="st2" d="M136.05,326.71c14.38,0.24,28.76,0.33,43.14,0.42c16.8,0.11,33.6,0.18,50.4,0.26
					c7.07,0.03,14.13,0.06,21.2,0.1c2.76,0.01,5.52,0.03,8.28,0.04c3.07,0.02,6.22-0.17,8.25,2.62c0.94,1.29,1.28,2.94,1.75,4.44
					c0.47,1.49,0.94,2.99,1.41,4.48c1.12,3.56,2.25,7.13,3.37,10.69c2.61,8.28,5.21,16.57,7.81,24.85
					c2.56,8.16,5.13,16.33,7.69,24.49c1.08,3.44,2.16,6.89,3.24,10.33c0.78,2.48,3.05,6.78-0.32,8.33c-1.14,0.52-2.6,0.29-3.83,0.29
					c-1.32,0-2.65-0.01-3.97-0.01c-3.06-0.01-6.11-0.02-9.17-0.03c-7.31-0.03-14.62-0.06-21.93-0.09
					c-16.63-0.08-33.25-0.17-49.88-0.3c-13.49-0.1-26.98-0.21-40.47-0.47c-1.51-0.03-2.93-0.39-3.62-1.89
					c-0.54-1.18-0.81-2.58-1.2-3.82c-0.96-3.1-1.93-6.2-2.9-9.3c-2.42-7.74-4.85-15.49-7.29-23.23
					c-4.78-15.21-9.58-30.42-14.4-45.62c-0.42-1.33-1.2-2.86-0.77-4.24C133.29,327.58,134.55,326.73,136.05,326.71
					c3.09-0.04,3.09-4.84,0-4.8c-5.09,0.07-9,4.66-7.96,9.72c0.32,1.56,0.94,3.1,1.42,4.62c0.52,1.65,1.05,3.3,1.57,4.96
					c2.5,7.9,5,15.81,7.49,23.71c4.94,15.66,9.87,31.33,14.75,47.01c1.1,3.55,1.85,7.46,5.56,9.21c2.81,1.32,6.54,0.86,9.59,0.91
					c6.85,0.11,13.69,0.18,20.54,0.25c16.91,0.16,33.82,0.27,50.74,0.35c14.98,0.08,29.96,0.14,44.94,0.19
					c1.35,0,2.7,0.01,4.05,0.01c1.72,0.01,3.44,0.09,5.08-0.56c2.3-0.92,4.06-2.82,4.78-5.2c0.65-2.15,0.12-4.15-0.53-6.21
					c-2.31-7.39-4.63-14.78-6.94-22.16c-5.21-16.62-10.44-33.24-15.67-49.86c-1.01-3.22-1.78-6.72-3.21-9.78
					c-2.03-4.33-6.35-6.31-10.93-6.34c-5.98-0.04-11.96-0.07-17.94-0.09c-16.6-0.08-33.2-0.14-49.79-0.23
					c-16.19-0.09-32.38-0.18-48.57-0.38c-2.98-0.04-5.97-0.08-8.95-0.13C132.96,321.86,132.96,326.66,136.05,326.71z"/>
			</g>
		</g>
		<g>
			<g>
				<path class="st2" d="M220.06,323.65c-2.39-6.55-0.47-13.78,0.86-20.36c1.39-6.88,2.97-13.72,4.59-20.55
					c1.11-4.68,2.01-9.47,3.34-14.09c1.94-6.78,4.99-14.07,10.06-19.13c2.91-2.9,6.65-4.94,10.33-6.68
					c3.91-1.85,7.99-3.3,12.12-4.55c2.95-0.89,1.69-5.53-1.28-4.63c-7.74,2.34-15.69,5.35-22.13,10.35
					c-6.19,4.81-9.99,12.4-12.55,19.66c-1.76,4.97-2.71,10.17-3.93,15.29c-1.64,6.92-3.27,13.85-4.72,20.82
					c-0.87,4.2-1.76,8.43-2.31,12.69c-0.53,4.11-0.44,8.53,1,12.46c0.44,1.22,1.63,2.04,2.95,1.68
					C219.55,326.28,220.5,324.88,220.06,323.65L220.06,323.65z"/>
			</g>
		</g>
		<g>
			<g>
				<path class="st2" d="M325.55,235.71c12.33,3.61,24.6,8.16,32.92,18.47c3.83,4.74,6.47,10.42,8.71,16.05
					c2.32,5.83,4.23,11.83,5.97,17.86c3.7,12.85,7.08,25.79,9.31,38.98c1.77,10.44,3.9,22.01-1.21,31.9
					c-3.23,6.26-8.94,10.37-14.91,13.83c-5.75,3.33-11.84,6.11-18.05,8.5c-1.21,0.46-2.42,0.91-3.64,1.34
					c-1.22,0.43-2.04,1.64-1.68,2.95c0.32,1.18,1.72,2.11,2.95,1.68c6.19-2.19,12.28-4.78,18.12-7.77
					c6.56-3.36,13.42-7.35,18.09-13.18c2.18-2.72,3.8-5.72,5.01-8.98c1.04-2.8,1.48-5.65,1.77-8.61c0.26-2.67,0.46-5.38,0.26-8.06
					c-0.23-2.98-0.69-5.96-1.14-8.92c-1.08-7.14-2.34-14.27-4-21.3c-1.57-6.63-3.38-13.2-5.19-19.77c-1.63-5.93-3.4-11.82-5.49-17.6
					c-2.25-6.22-4.8-12.49-8.41-18.06c-3.69-5.69-8.56-10.48-14.27-14.13c-5.73-3.66-12.16-6.13-18.61-8.2
					c-1.74-0.56-3.49-1.08-5.24-1.6C323.85,230.21,322.58,234.85,325.55,235.71L325.55,235.71z"/>
			</g>
		</g>
		<g>
			<g>
				<path class="st2" d="M255.98,241.86c1.01,4.88,4.39,8.98,8.58,11.55c4.74,2.91,10.52,3.77,16,3.61
					c10.94-0.31,21.46-4.59,30.6-10.4c5.15-3.27,9.97-7.09,14.42-11.26c2.26-2.12-1.14-5.51-3.39-3.39
					c-7.11,6.66-15.26,12.48-24.28,16.25c-4.43,1.85-9.18,3.26-13.96,3.77c-4.83,0.51-9.95,0.4-14.51-1.47
					c-4.3-1.77-7.87-5.3-8.83-9.94C259.98,237.56,255.36,238.84,255.98,241.86L255.98,241.86z"/>
			</g>
		</g>
		<g>
			<path class="st0" d="M272.12,263.07c-0.51-0.42-1.04-0.75-1.58-0.98c0.56-1.41,0.92-2.32,0.92-2.32c0.5-1.27,0.02-3.34-1.03-4.44
				c-0.89-0.94-2.12-1.31-3.43-1.39c0.61-1.27,0.99-2.07,0.99-2.07c0.44-0.91,0.44-2.76,0-3.73c-0.23-0.52-0.73-1.31-1.19-1.65
				c-0.64-0.46-2.31-0.47-3.09-0.4c-4.67,0.46-8.74,1.28-12.7,2.71c0.53-1.18,0.8-1.9,1.51-3.13c0.78-1.33,2.2-2.05,3.51-2.78
				c2.49-1.39,5.04-2.9,7.42-4.47c1.78-1.18,1.84-2.97,0.99-4.43c-0.54-0.94-1.21-1.44-2.34-1.71c-2.2-0.53-5.01,0.33-7.52,1.33
				c-2.48,0.99-6.16,2.33-8.16,4.2c-2.39,2.23-3.33,5.22-4.43,8.14c-0.61,1.61-1.9,6.18-2.43,7.83l-0.65,3.84
				c-0.18,1.09-0.14,2.2,0.14,3.27c1.6,6.18,3.19,12.37,4.78,18.57c0.65,2.55,1.31,5.13,1.65,7.74l0.05,2.59
				c5.64,0.58,13.28,1.4,19.19,2.19c0.17-0.91,0.29-1.62,0.31-1.77c0.17-1.39,0.32-3.72,0.38-5.11c0.07-1.8,0.06-4.67,0.05-7.46
				c0.22,0.27,0.36,0.42,0.36,0.42c0.4,1.11,1.11,2.01,2.19,2.33c0.85,0.26,1.78,0.33,2.57-0.07c1.2-0.6,1.98-1.84,2.35-3.13
				c0.37-1.29,0.51-2.84,0.56-4.18c0.1-2.39,0.09-4.07,0.09-6.62C273.6,265.14,273.1,263.88,272.12,263.07z"/>
		</g>
		<g>
			<g>
				<path class="st2" d="M241.89,254.43c0.83-2.6,1.49-5.26,2.43-7.83c1.19-3.25,2.35-6.45,5.5-8.25c1.53-0.87,3.16-1.52,4.79-2.17
					c1.82-0.72,3.77-1.58,5.75-1.64c0.88-0.03,2.63,0.31,2.21,1.49c-0.06,0.18-0.78,0.63-1.08,0.82c-0.9,0.58-1.8,1.14-2.72,1.69
					c-1.99,1.2-4.17,2.2-6.05,3.56c-1.94,1.41-2.83,3.36-3.78,5.49c-0.53,1.18-0.34,2.58,0.86,3.28c1.02,0.6,2.75,0.33,3.28-0.86
					c0.41-0.92,0.81-1.85,1.29-2.74c0.51-0.95,1.29-1.42,2.21-1.94c2.21-1.25,4.41-2.5,6.56-3.85c2.1-1.33,4.11-2.74,4.23-5.46
					c0.1-2.16-1.19-4.41-3.07-5.45c-4.28-2.39-9.92,0.47-13.93,2.19c-1.97,0.84-3.9,1.81-5.51,3.25c-1.74,1.56-2.9,3.63-3.8,5.75
					c-1.57,3.71-2.59,7.56-3.81,11.39C236.32,256.1,240.95,257.37,241.89,254.43L241.89,254.43z"/>
			</g>
		</g>
		<g>
			<g>
				<path class="st2" d="M238.49,291.51c8.72,0.81,17.93,1.76,26.28,2.89c2.12,0.29,4.25,0.58,6.35,1.01
					c-0.59-0.77-1.17-1.54-1.76-2.31c-0.64,9.47-1.54,18.78-3.32,28.11c-0.24,1.27,0.36,2.59,1.68,2.95
					c1.17,0.32,2.71-0.4,2.95-1.68c1.85-9.75,2.82-19.5,3.49-29.39c0.07-0.98-0.79-2.12-1.76-2.31c-4.41-0.9-8.91-1.37-13.38-1.9
					c-5.1-0.6-10.2-1.15-15.31-1.66c-1.74-0.18-3.48-0.35-5.23-0.51c-1.29-0.12-2.4,1.19-2.4,2.4
					C236.09,290.51,237.2,291.39,238.49,291.51L238.49,291.51z"/>
			</g>
		</g>
		<g>
			<g>
				<path class="st2" d="M244.03,254.78c4.29-2.51,8.82-4.34,13.68-5.37c2.2-0.46,4.54-0.94,6.8-0.95c0.32,0,0.98,0.2,1.22,0.14
					c-0.26,0.07-0.25-0.29-0.32-0.14c-0.01,0.02,0.41,0.68,0.37,0.6c0.27,0.63,0.17,1.52-0.1,2.18c-0.49,1.2,0.53,2.64,1.68,2.95
					c1.37,0.38,2.46-0.47,2.95-1.68c1.06-2.6,0.21-6.56-2.29-8.09c-2.45-1.5-6.14-0.57-8.76-0.16c-6.26,0.98-12.18,3.17-17.65,6.37
					C238.94,252.2,241.35,256.35,244.03,254.78L244.03,254.78z"/>
			</g>
		</g>
		<g>
			<g>
				<path class="st2" d="M251.37,259.75c4.02-1.69,8.31-2.49,12.59-3.19c1.28-0.21,3.07-0.46,4.16,0.03
					c0.41,0.18,0.7,0.45,0.88,0.84c0.09,0.19,0.25,0.8,0.24,0.79c0.07,0.56,0.07,0.43-0.1,0.93c-0.42,1.23,0.48,2.62,1.68,2.95
					c1.31,0.36,2.54-0.44,2.95-1.68c0.76-2.24-0.02-5.09-1.64-6.77c-1.73-1.78-4.3-2.25-6.69-2.07c-2.54,0.19-5.1,0.72-7.6,1.24
					c-2.65,0.55-5.26,1.27-7.75,2.32c-1.19,0.5-2.05,1.59-1.68,2.95C248.72,259.2,250.16,260.26,251.37,259.75L251.37,259.75z"/>
			</g>
		</g>
		<g>
			<g>
				<path class="st2" d="M254.46,266.54c3.4-0.74,6.82-1.45,10.25-2.05c1.28-0.22,2.91-0.65,4.02-0.46c0.62,0.1,1.19,0.33,1.69,0.73
					c0.42,0.34,0.48,0.57,0.6,1.01c0.33,1.16,0.18,2.98,0.16,4.44c-0.02,1.58-0.01,3.2-0.22,4.77c-0.14,1.08-0.46,2.48-1.09,3
					c-0.43,0.35-0.71,0.29-1.21,0.13c-0.1-0.03-0.38-0.33-0.51-0.66c-0.47-1.21-1.61-2.04-2.95-1.68c-1.15,0.32-2.15,1.74-1.68,2.95
					c0.69,1.77,1.75,3.25,3.6,3.92c1.81,0.66,3.84,0.47,5.4-0.69c3.02-2.24,3.3-6.21,3.42-9.66c0.06-1.75,0.1-3.5,0.06-5.25
					c-0.03-1.59-0.37-3.27-1.28-4.6c-1.01-1.47-2.7-2.52-4.42-2.96c-1.84-0.47-3.62-0.15-5.46,0.16c-3.9,0.65-7.78,1.45-11.65,2.29
					c-1.27,0.28-2.01,1.75-1.68,2.95C251.87,266.18,253.19,266.82,254.46,266.54L254.46,266.54z"/>
			</g>
		</g>
		<g>
			<g>
				<path class="st2" d="M267.12,292.22c0.72-3.42,0.74-7.04,0.75-10.52c0.01-3.35-0.05-6.71-0.02-10.06c0.03-3.09-4.77-3.09-4.8,0
					c-0.03,3.26,0.03,6.53,0.02,9.79c-0.01,3.13,0.06,6.45-0.58,9.52c-0.27,1.27,0.37,2.59,1.68,2.95
					C265.36,294.22,266.85,293.49,267.12,292.22L267.12,292.22z"/>
			</g>
		</g>
		<g>
			<g>
				<path class="st2" d="M241.6,250.64c-2.37,1.51-4.49,3.92-4.99,6.77c-0.59,3.37,0.88,6.98,1.71,10.21
					c0.87,3.38,1.74,6.76,2.61,10.14c0.86,3.34,1.79,6.68,2.26,10.1c0.18,1.29,1.82,1.99,2.95,1.68c1.39-0.38,1.85-1.66,1.68-2.95
					c-0.83-6.04-2.74-11.99-4.26-17.88c-0.74-2.88-1.76-5.82-2.22-8.77c-0.34-2.19,0.85-3.97,2.69-5.14
					C246.63,253.13,244.22,248.98,241.6,250.64L241.6,250.64z"/>
			</g>
		</g>
		<g>
			<g>
				<path class="st2" d="M335.65,304.26c2.44,8.93,4.88,17.86,7.32,26.79c0.81,2.98,5.45,1.71,4.63-1.28
					c-2.44-8.93-4.88-17.86-7.32-26.79C339.46,300.01,334.83,301.27,335.65,304.26L335.65,304.26z"/>
			</g>
		</g>
		<g>
			<g>
				<path class="st2" d="M384.34,211.87c3.16,0.92,6.74,1.79,9.97,0.65c2.64-0.92,4.98-3.15,5.58-5.94
					c1.45-6.75-7.28-10.05-12.47-10.85c-1.43-0.22-3.04-0.51-4.4,0.18c-1.56,0.79-2.37,2.47-1.89,4.19
					c0.86,3.11,4.67,4.32,7.36,5.25c5.1,1.76,11.37,2.81,16.39,0.21c2.14-1.11,3.83-3.1,4.32-5.48c0.66-3.23-0.8-6.54-3.13-8.75
					c-2.21-2.1-5.03-3.44-7.73-4.77c-2.54-1.25-5.15-2.43-7.89-3.19c-2.57-0.71-5.27-1.04-7.94-1.02c-2.87,0.02-7.37,0.07-7.5,3.96
					c-0.11,3.17,2.97,4.96,5.37,6.26c2.49,1.34,5.06,2.54,7.7,3.55c5.24,1.99,10.76,2.93,16.32,3.41c2.88,0.25,5.72,0.05,8.31-1.35
					c2.58-1.39,4.46-4.02,4.63-6.98c0.34-5.77-5.74-10.1-10.11-12.64c-5.13-2.98-10.87-5.43-16.57-7.06
					c-4.27-1.23-10.25-2.7-14.36-0.19c-1.64,1.01-3.04,2.95-2.5,4.95c0.39,1.42,1.5,2.43,2.65,3.27c2.83,2.06,6.41,3.21,9.7,4.27
					c4.54,1.46,9.19,2.58,13.86,3.53c4.75,0.96,9.55,1.77,14.38,2.22c4.65,0.43,10.84-2.32,11.64-7.41c0.41-2.58-1.01-4.87-2.57-6.8
					c-1.59-1.95-3.56-3.64-5.65-5.03c-2.59-1.71-5.53-3.03-8.36-4.3c-2.96-1.34-5.98-2.55-9.1-3.46c-2.91-0.85-5.89-1.4-8.91-1.69
					c-1.29-0.12-2.4,1.19-2.4,2.4c0,1.4,1.1,2.28,2.4,2.4c4.87,0.46,9.63,1.94,14.11,3.84c4.2,1.78,8.78,3.72,12.2,6.81
					c1.31,1.19,2.76,2.59,3.43,4.27c-0.07-0.18,0.14,0.57,0.16,0.65c-0.08-0.22,0-0.03-0.06,0.2c-0.15,0.61-0.58,1.18-1.14,1.66
					c-2.67,2.29-6.1,1.68-9.28,1.25c-7.76-1.05-15.54-2.68-23.01-5.04c-2.89-0.91-5.26-1.69-7.77-3.14
					c-0.24-0.14-0.49-0.29-0.72-0.44c-0.07-0.05-0.67-0.48-0.38-0.25c0.29,0.22-0.25-0.22-0.33-0.3c-0.09-0.09-0.49-0.59-0.25-0.24
					c0.26,0.36-0.07-0.13-0.11-0.24c0-0.01,0.23,0.62,0.14,0.29c-0.06-0.22,0.05-0.23,0.04,0.36c0.01-0.3-0.04-0.43-0.16,0.63
					c0.01-0.07,0.19-0.34,0.21-0.36c-0.23,0.16,0.2-0.15,0.2-0.15c0.37-0.25,0.7-0.36,1.44-0.51c0.49-0.1,1.5-0.13,2.28-0.1
					c2.03,0.07,4.02,0.5,5.98,1.02c4.6,1.22,9.08,3.1,13.34,5.21c3.57,1.77,7.55,3.86,9.8,7.27c1.08,1.63,1.43,3.37-0.12,4.87
					c-1.22,1.18-3.03,1.62-4.69,1.65c-4.37,0.06-9.02-0.83-13.22-2c-4.25-1.18-8.23-3.01-12.06-5.17c-0.36-0.2-0.73-0.39-1.05-0.65
					c-0.03-0.02-0.63-0.68-0.63-0.68c0,0.01,0,0.03,0,0.04c-0.02,0.34-0.17,0.64-0.46,0.9c0.04,0.03,0.15-0.03,0.18-0.02
					c0.32,0.19,1.78-0.12,2.17-0.13c2.06-0.06,4.11,0.05,6.12,0.5c4.27,0.93,8.34,2.97,12.11,5.12c1.88,1.07,3.82,2.42,4.48,4.59
					c0.47,1.52-0.09,2.83-1.18,3.6c-3.12,2.23-7.85,1.34-11.28,0.42c-1.17-0.32-2.33-0.69-3.47-1.14c-0.51-0.2-1.02-0.43-1.52-0.67
					c-0.07-0.03-1.3-0.86-1.27-0.87c-0.11,0.03-0.15,1.12-0.28,1.28c-0.51,0.65-0.77,0.17-0.23,0.29c0.44,0.1,0.94,0.08,1.39,0.15
					c1.28,0.2,2.54,0.55,3.75,0.99c1.51,0.55,4.35,1.58,4.86,3.31c0.44,1.51-1.23,2.86-2.48,3.28c-2.27,0.75-4.9-0.13-7.08-0.76
					C382.65,206.37,381.38,211,384.34,211.87L384.34,211.87z"/>
			</g>
		</g>
	</g>
</g>
<g id="レイヤー_2">
</g>
</svg>
