<?xml version="1.0" encoding="utf-8"?>
<!-- Generator: Adobe Illustrator 27.6.1, SVG Export Plug-In . SVG Version: 6.00 Build 0)  -->
<svg version="1.1" id="layer" xmlns="http://www.w3.org/2000/svg" xmlns:xlink="http://www.w3.org/1999/xlink" x="0px" y="0px"
	 viewBox="0 0 540 540" style="enable-background:new 0 0 540 540;" xml:space="preserve">
<style type="text/css">
	.st0{fill:#FFFFFF;}
	.st1{fill:#957F6E;}
	.st2{fill:#211715;}
	.st3{fill:#F4B467;}
</style>
<g id="group">
	<g>
		<path class="st0" d="M346,355.7c-1.3-0.4-22.4-10.3-22.9-10.5c-6.7-2.4-6.4-6.7-7.3-11.5c-0.6-3.7-1.1-7.1-1.3-10.9
			c17.4-7.4,31.3-30.8,33.8-37.4c0.4-1.1,1.1-3.2,1.8-5.7c0.9-0.2,1.4-0.2,1.4-0.2c3-0.5,5.8-1.8,8.1-3.6c3-2.4,5.1-5.6,6.8-8.9
			c3.4-6.8,4.9-14.4,4.2-21.9c-0.2-1.9-0.5-3.8-1.4-5.5c-1.4-2.4-4.1-4.2-7-4.7c-3-0.4-6.1,0.5-8.3,2.4c0,0,5.9-57.3-70.8-57.3
			c-72.2,0-67.8,57.3-67.8,57.3c-2.1-1.9-5.3-2.9-8.3-2.4c-3,0.4-5.7,2.2-7,4.7c-1,1.7-1.3,3.7-1.4,5.5c-0.6,7.5,0.8,15.1,4.2,21.9
			c1.6,3.3,3.8,6.5,6.8,8.9c2.3,1.8,5.1,3.2,8.1,3.6c0,0,1,0.2,2.6,0.4c2.3,8.3,6.3,17.7,13.4,26.1c6,7.2,12.8,12.8,20.1,16.2
			c-0.2,4-0.7,7.5-1.4,11.4c-0.8,4.8-0.6,9.1-7.3,11.5c-0.4,0.2-21.6,10-22.9,10.5c0,0,2.8,37,64.4,37S346,355.7,346,355.7z"/>
	</g>
	<g>
		<path class="st1" d="M227.8,334.3c9.7-1.5,17.9-6.2,21.6-11.6c0,0,0.5-0.8,1.3-2c-6.1-3.5-11.8-8.4-17-14.6
			c-7.1-8.5-11.1-17.9-13.4-26.1c-1.6-0.2-2.6-0.4-2.6-0.4c-3-0.5-5.8-1.8-8.1-3.6c-1-0.8-2-1.8-2.8-2.8c-1.7,3.2-2.9,6.9-3.5,11.5
			c-0.3,2.3-0.4,4.9-0.4,7.7c0,0.5,0,1,0.1,1.6c0.3,5.6,1.6,11.3,1.9,16.9c0.3,6.1-1.3,12-7.1,14c-0.2,0.1-0.3,0.8-0.3,1
			c0,0.5,0.2,0.9,0.5,1.3c0.7,1.1,1.9,1.9,3,2.6C207.3,333.6,217.3,335.9,227.8,334.3z"/>
	</g>
	<g>
		<path class="st1" d="M364.7,191.7c-0.3-1.5-0.5-2.9-0.8-4.2c-7.2-35.2-42.7-63.2-79.8-61.1c-37.2-2-72.7,25.9-79.8,61.1
			c-1.9,9.5-1.7,25.7,0.1,33.3c0,0,1.8,7,3.6,13.9c2.7-0.2,5.5,0.8,7.4,2.5c14.7-10.2,39.6-27.9,52.6-39c-1.1,6.6-4.8,17.8-0.1,16.6
			c19.8-4.6,38.9-13.9,50.4-28.3c2.4,8.5,6.4,20.1,9.4,25.1c4.2,7.1,16.2,23.2,26.4,25.6c2.1-1.9,5.3-2.9,8.3-2.4
			c0.4,0.1,0.9,0.2,1.3,0.3C368.6,223.2,366.8,203.8,364.7,191.7z"/>
	</g>
	<g>
		<g>
			<path class="st2" d="M207,220.4c-0.9-4-1.1-8.1-1.3-12.6c-0.1-5,0-10.1,0.6-15.1c0.5-4.2,1.6-8.9,3.1-13.2
				c1.5-4.4,3.5-8.6,5.9-12.6c9.7-16.3,25.7-28.9,43.8-34.5c4.6-1.4,9.4-2.5,14.1-2.9c4.9-0.5,9.9-0.4,14.8-0.4
				c9.6,0,19.1,2,27.9,5.7c17.6,7.4,32.4,21.3,40.5,38.6c3.7,7.8,5.6,16.8,6.6,25.2c1.2,9.7,1.8,20-0.3,29.5
				c-0.5,2.1-1.1,4.2-1.9,6.2c-0.6,1.4,0.6,3.1,2,3.4c1.6,0.4,2.9-0.6,3.4-2c1.9-4.6,2.8-9.7,3.2-14.7c0.4-5.2,0.3-10.4-0.1-15.6
				c-0.7-9.3-2-18.9-5.1-27.8c-6.8-19.2-21.4-35.3-39.4-44.8c-9.2-4.9-19.2-8-29.5-9c-2.6-0.3-5.1-0.4-7.7-0.4c-2.6,0-5.2,0-7.8,0
				c-5.1,0-10.3,0.6-15.3,1.7c-20.1,4.3-38.1,16.5-50.1,33c-5.9,8.1-10.2,17.4-12.5,27.2c-1.1,5-1.6,10.1-1.7,15.1
				c-0.2,5-0.1,10.1,0.5,15.1c0.2,2.1,0.5,4.2,1,6.2C202.4,225.4,207.8,223.9,207,220.4L207,220.4z"/>
		</g>
	</g>
	<g>
		<g>
			<path class="st2" d="M315.7,188.4c1.4,5,3.1,9.9,4.9,14.7c1.5,3.8,3,7.7,5.1,11.2c4.2,6.9,9.5,13.4,15.5,18.8
				c3.4,3,7.3,5.9,11.8,7c3.5,0.9,5-4.5,1.5-5.4c-1.8-0.4-2.6-0.8-4.2-1.8c-1.7-1-3.1-2-4.5-3.2c-3.2-2.7-6-5.8-8.7-9
				c-2.2-2.7-4.3-5.5-6.3-8.6c-1.9-3-3.3-6.1-4.5-9.3c-2-5.2-3.8-10.5-5.3-15.8C320.1,183.4,314.7,184.9,315.7,188.4L315.7,188.4z"
				/>
		</g>
	</g>
	<g>
		<g>
			<path class="st2" d="M316.3,184.3c-6.6,8.4-15.4,14.6-24.9,19.3c-5,2.5-10.3,4.5-15.6,6.2c-2.6,0.8-5.3,1.5-8,2.2
				c-0.3,0.1-0.7,0.2-1,0.2c0.6-0.1,0.4-0.1,0.2-0.1c0.4,0,0.4,0,0.7,0.2c0.6,0.4,0.4,0.4,0.3,0.2c0.5,0.5,0.3,0.3,0.1,0.1
				c0.2,0.3,0.2,0.5,0.1,0.2c-0.1-0.2-0.1-0.8,0,0c0-0.2,0-0.4,0-0.6c-0.1-2.2,0.3-3.6,0.8-6c0.5-2.4,1.1-4.8,1.5-7.3
				c0.5-2.8-2.5-4.6-4.7-2.7c-13,11.1-27.1,21-41,30.9c-3.6,2.6-7.3,5.1-11,7.7c-1.2,0.9-1.8,2.5-1,3.8c0.7,1.2,2.6,1.9,3.8,1
				c14.5-10.1,29-20.3,42.9-31.2c3.4-2.7,6.9-5.4,10.2-8.3c-1.6-0.9-3.1-1.8-4.7-2.7c-0.8,4.7-2.4,9.3-2.5,14.1
				c-0.1,1.8,0.2,3.8,1.7,5.1c2.2,2,5.3,0.6,7.8,0c11.9-3.1,23.6-7.9,33.8-15c5.4-3.8,10.4-8.2,14.5-13.4c0.9-1.2,1.2-2.8,0-4
				C319.3,183.4,317.2,183.2,316.3,184.3L316.3,184.3z"/>
		</g>
	</g>
	<g>
		<g>
			<path class="st2" d="M204.3,271.7c-3.9,7.8-4.8,16.7-3.9,25.3c0.5,4.6,1.4,9.2,1.6,13.9c0.1,3.2-0.2,6.2-1.9,8.8
				c-0.6,0.9-1.7,1.7-2.8,2.3c-1.2,0.6-2.1,1-2.5,2.4c-0.3,1.2-0.1,2.4,0.4,3.5c1.6,3.5,6,5.4,9.4,6.7c8,3.3,17.1,3.8,25.5,2.2
				c8.2-1.6,16.9-5.6,21.7-12.7c0.9-1.3,0.2-3.1-1-3.8c-1.4-0.8-3-0.2-3.8,1c-0.4,0.6-0.5,0.7-1,1.2c-0.5,0.6-1.1,1.2-1.7,1.7
				c-1.1,1-2.3,1.8-3.5,2.6c-3.1,1.9-6.5,3.2-10.1,4.1c-7.4,1.8-15.4,1.5-22.7-1c-1.7-0.6-3.3-1.3-4.8-2.2c-0.8-0.4-1.6-0.9-2.2-1.5
				c-0.2-0.2-0.5-0.7-0.7-0.8c-0.4-0.2,0.1,0.4,0,0.2c-0.1-0.1-0.1,0.4,0.1-0.1c-0.2,0.4-0.5,0.8-0.7,1.2c0,0,0.1-0.1,0.1-0.1
				c-0.4,0.2-0.8,0.5-1.2,0.7c3.2-1.2,5.9-3.3,7.4-6.5c1.4-3,1.9-6.4,1.8-9.7c-0.1-4.3-0.9-8.6-1.5-12.8c-0.5-4.2-0.6-8.4-0.2-12.6
				c0.4-3.9,1.4-7.8,3.2-11.3c0.7-1.3,0.4-3-1-3.8C206.9,270,205,270.3,204.3,271.7L204.3,271.7z"/>
		</g>
	</g>
	<g>
		<g>
			<path class="st2" d="M355.8,239.3c2.3-2,5.9-2.2,8.5-0.7c3.3,1.9,3.5,5.9,3.6,9.4c0.1,7.8-2.1,16.3-7,22.6
				c-2.6,3.3-6,5.6-10.2,6.3c-1.5,0.3-2.3,2.1-2,3.4c0.4,1.6,1.9,2.2,3.4,2c10.2-1.7,16.3-11.3,19.3-20.5c1.5-4.8,2.2-9.9,2-14.9
				c-0.2-5.2-1.5-10.3-6.3-13.1c-4.9-2.9-11.1-2.1-15.3,1.6c-1.1,1-1,2.9,0,4C353,240.4,354.7,240.2,355.8,239.3L355.8,239.3z"/>
		</g>
	</g>
	<g>
		<g>
			<path class="st2" d="M348.5,271.8c-0.1,3.1-0.8,6.1-1.7,9c-0.3,1.1-0.7,2.2-1.1,3.3c-0.1,0.3-0.2,0.5-0.3,0.8
				c0,0.1-0.1,0.2-0.1,0.4c-0.2,0.5,0.3-0.7,0-0.1c-1.4,3-2.9,5.8-4.7,8.5c-5,7.9-10.9,15.3-18.5,21.2c-4,3.1-8.6,5.7-13.6,6.8
				c-3.5,0.8-2,6.2,1.5,5.4c10.3-2.3,18.9-9.8,25.7-17.6c5.5-6.3,10.7-13.4,14.2-21.1c2.3-5.1,3.9-11,4.1-16.6
				C354.3,268.2,348.7,268.2,348.5,271.8L348.5,271.8z"/>
		</g>
	</g>
	<g>
		<g>
			<path class="st2" d="M217.2,235.3c-3.7-3.2-9-4.3-13.6-2.4c-2.3,0.9-4.2,2.4-5.6,4.4c-1.5,2.2-2,4.9-2.3,7.5
				c-0.9,9.7,1.7,20.6,7.6,28.5c3.3,4.5,8,8,13.5,8.9c1.5,0.2,3-0.4,3.4-2c0.4-1.3-0.5-3.2-2-3.4c-7.8-1.3-12.5-8.3-14.9-15.3
				c-1.3-3.8-2.1-7.8-2.2-11.8c-0.1-3.4-0.3-8,2.6-10.5c2.6-2.2,6.8-2.2,9.5,0c1.1,1,2.8,1.1,4,0
				C218.2,238.2,218.4,236.3,217.2,235.3L217.2,235.3z"/>
		</g>
	</g>
	<g>
		<g>
			<path class="st2" d="M215.3,270.8c1.8,10.2,5.1,20.3,10.5,29.2c6,9.8,14.8,18.7,25,24.1c5.4,2.8,11.2,4.5,17.2,5.1
				c1.5,0.2,2.8-1.4,2.8-2.8c0-1.6-1.3-2.6-2.8-2.8c-9.7-1-18.7-5.9-25.8-12.5c-8.1-7.5-14.2-16.7-17.8-27.1
				c-1.7-4.8-2.9-9.7-3.7-14.7c-0.3-1.5-2.1-2.3-3.4-2C215.7,267.7,215.1,269.3,215.3,270.8L215.3,270.8z"/>
		</g>
	</g>
	<g id="face_17_">
		<g>
			<g>
				<path class="st2" d="M272.7,292.5c4.1,2.1,8.4,3,13,3c4.6,0,9.3-0.9,13-3.8c1.2-0.9,1-3,0-4c-1.2-1.2-2.8-0.9-4,0
					c0.8-0.6,0,0-0.2,0.1c-0.3,0.2-0.5,0.3-0.8,0.5c-0.2,0.1-1.1,0.5-0.5,0.2c-0.4,0.2-0.8,0.3-1.1,0.4c-2.3,0.7-4.4,0.9-6.9,0.9
					c-2.4,0-4.3-0.2-6.6-0.9c-0.4-0.1-0.8-0.3-1.2-0.4c-0.1,0-0.3-0.1-0.4-0.2c0.7,0.3,0.1,0-0.1,0c-0.5-0.2-1-0.5-1.5-0.8
					c-1.3-0.7-3-0.3-3.8,1C270.9,289.9,271.3,291.7,272.7,292.5L272.7,292.5z"/>
			</g>
		</g>
		<g>
			<g>
				<path class="st2" d="M284.5,261.4c0.6,2.2,1.1,4.5,1.5,6.7c0-0.2-0.1-0.5-0.1-0.7c0,0.3,0.1,0.6,0,0.9c0-0.2,0.1-0.5,0.1-0.7
					c0,0.1-0.1,0.3-0.1,0.4c0.1-0.2,0.2-0.4,0.3-0.7c0,0.1-0.1,0.2-0.1,0.3c0.1-0.2,0.3-0.4,0.4-0.6c-0.1,0.1-0.1,0.1-0.2,0.2
					c0.2-0.1,0.4-0.3,0.6-0.4c-0.2,0.1-0.4,0.2-0.5,0.3c0.2-0.1,0.4-0.2,0.7-0.3c-0.3,0.1-0.6,0.2-0.9,0.3c0.2,0,0.5-0.1,0.7-0.1
					c-0.3,0-0.6,0-0.8,0c0.2,0,0.5,0.1,0.7,0.1c-0.3,0-0.6-0.1-0.9-0.2c-0.8-0.1-1.4-0.1-2.2,0.3c-0.6,0.3-1.1,1-1.3,1.7
					c-0.2,0.7-0.1,1.5,0.3,2.2c0.4,0.6,1,1.2,1.7,1.3c0.7,0.1,1.3,0.3,2,0.3c1,0,2-0.3,2.9-0.7c1.1-0.5,2-1.5,2.3-2.6
					c0.2-1,0.1-1.9,0-2.9c-0.4-2.2-0.9-4.3-1.4-6.5c-0.4-1.4-2-2.4-3.4-2C285,258.5,284.1,259.9,284.5,261.4L284.5,261.4z"/>
			</g>
		</g>
		<g>
			<path class="st2" d="M248.3,242.5c-1.1,3.7-0.4,12.1,6.5,12.8c9.2-0.1,9.6-10.2,6.6-15C258.8,236.4,251.4,234.7,248.3,242.5z"/>
		</g>
		<g>
			<path class="st2" d="M321.6,242.5c1.1,3.7,0.4,12.1-6.5,12.8c-9.2-0.1-9.6-10.2-6.6-15C311,236.4,318.5,234.7,321.6,242.5z"/>
		</g>
	</g>
	<g>
		<path class="st0" d="M333.1,422.1c-0.1-11.5-0.2-31.6-0.2-47.7c-15.2,7.9-29.7,12.1-48.8,12.1c-17.1,0-34.4-3.8-48.5-11.7
			c0,16-0.1,35.8-0.2,47.3H333.1z"/>
	</g>
	<g>
		<g>
			<path class="st2" d="M222.8,354.5c1.8-0.7,3.6-1.6,5.3-2.4c2.9-1.4,5.8-2.7,8.7-4.1c2.5-1.2,5-2.3,7.4-3.5
				c0.5-0.2,1.1-0.4,1.5-0.7c0.1-0.1-1.4,0.6-0.2,0.1c0.3-0.1,0.7-0.3,1-0.4c0.6-0.2,1.1-0.5,1.6-0.8c1-0.6,1.9-1.3,2.7-2.2
				c1.5-1.8,2.3-3.9,2.7-6.1c0.5-2.6,0.9-5.3,1.2-7.9c0.2-1.5-0.4-3-2-3.4c-1.3-0.4-3.2,0.4-3.4,2c-0.3,2.4-0.7,4.7-1.1,7.1
				c-0.3,1.8-0.6,3.1-1.3,4.3c-0.2,0.3-0.9,1-1.2,1.3c-0.9,0.6-1.9,1-2.8,1.4c-0.4,0.2-0.9,0.4-1.3,0.6c-5.1,2.4-10.3,4.9-15.4,7.3
				c-1.2,0.6-2.4,1.1-3.6,1.7c-0.4,0.2-0.8,0.4-1.3,0.6c-0.1,0.1-0.3,0.1-0.4,0.2c-0.3,0.2,0.8-0.3,0.3-0.1c-1.4,0.5-2.4,1.9-2,3.4
				C219.7,354,221.3,355.1,222.8,354.5L222.8,354.5z"/>
		</g>
	</g>
	<g>
		<g>
			<path class="st2" d="M312.2,326.5c0.3,2.4,0.7,4.8,1.1,7.2c0.3,1.9,0.8,3.8,1.9,5.4c1.3,2,3.1,3.4,5.3,4.3
				c0.5,0.2,1.2,0.4,1.6,0.7c-0.9-0.5-0.7-0.3-0.5-0.2c0.3,0.1,0.5,0.2,0.8,0.4c5.3,2.5,10.7,5,16,7.4c2.1,1,4.3,2.1,6.5,2.9
				c1.4,0.5,3.1-0.6,3.4-2c0.4-1.6-0.5-2.9-2-3.4c-0.7-0.2,0.6,0.3,0.1,0c-0.4-0.2-0.7-0.3-1.1-0.5c-1.1-0.5-2.1-1-3.2-1.4
				c-2.9-1.3-5.7-2.6-8.6-4c-2.5-1.2-5-2.3-7.5-3.5c-1.9-0.9-4.3-1.7-5.6-2.9c-0.1-0.1-0.3-0.3-0.4-0.4c-0.4-0.5,0.1,0.2-0.2-0.3
				c-0.1-0.2-0.2-0.4-0.3-0.6c-0.1-0.1-0.4-0.9-0.2-0.4c-0.3-0.8-0.5-1.7-0.7-2.6c-0.5-2.6-0.9-5.1-1.2-7.7c-0.2-1.5-2.1-2.3-3.4-2
				C312.6,323.5,312,325,312.2,326.5L312.2,326.5z"/>
		</g>
	</g>
	<g>
		<g>
			<path class="st2" d="M332.8,367.1c-11.2,5.7-23.1,9.9-35.6,11.3c-13.8,1.6-27.9,0.8-41.4-2.7c-7.4-1.9-14.6-4.7-21.2-8.5
				c-3.1-1.8-6,3.1-2.8,4.8c12.7,7.2,27.2,11,41.7,12.2c13.8,1.2,28,0.1,41.3-3.8c7.2-2.1,14.1-5.1,20.8-8.6
				C338.8,370.3,336,365.4,332.8,367.1L332.8,367.1z"/>
		</g>
	</g>
	<g>
		<path class="st3" d="M422,419.1c-2.6-5.3-4.7-10.8-7.7-15.9c-2.6-4.5-7.4-15.4-17.2-24.1c-5.2-4.6-17.9-13.9-37.4-23
			c-6.8-3.2-15.4-7.4-22.6-10.2c-1.3-0.5-2.7,0.5-2.7,1.9c0,12.4,0.1,52.4,0.3,71.1"/>
		<g>
			<path class="st2" d="M424.4,417.7c-6-12.5-11.5-25.7-20.9-36.2c-3.6-4-7.8-7.3-12.2-10.5c-5.4-3.8-11-7.3-16.7-10.5
				c-7.3-4.1-14.9-7.5-22.5-11.1c-3.8-1.8-7.6-3.5-11.5-5.1c-1.9-0.8-3.8-1.8-5.9-1.1c-2.1,0.7-3.2,2.7-3.2,4.8
				c-0.2,10.3,0,20.5,0.1,30.8c0,12.2,0.1,24.3,0.2,36.5c0,1.2,0,2.3,0,3.5c0,3.6,5.6,3.6,5.6,0c-0.1-11.2-0.1-22.5-0.2-33.7
				c0-11-0.1-22-0.1-33c0-0.9,0-1.8,0-2.7c0-0.4,0-0.7,0-1.1c0,0,0-0.6,0-0.6c0.4,0-0.8,1-0.7,0.8c0,0-0.1,0-0.1,0
				c0,0,0.6,0.3,0.8,0.3c0.4,0.2,0.8,0.3,1.1,0.5c0.8,0.3,1.6,0.7,2.5,1c1.9,0.8,3.8,1.6,5.6,2.5c7.3,3.3,14.6,6.7,21.7,10.4
				c6.1,3.2,12.1,6.7,17.8,10.6c1.1,0.7,2.2,1.5,3.2,2.3c0.5,0.3,0.9,0.7,1.4,1c0.2,0.2,0.5,0.4,0.7,0.5c0.1,0.1,0.7,0.5,0.5,0.4
				c1.2,0.9,3.1,2.5,4.5,3.8c5,4.7,8.9,10.2,12.2,16.1c3.1,5.5,6,11,8.6,16.7c0.9,1.9,1.7,3.8,2.6,5.7c0.7,1.4,2.6,1.7,3.8,1
				C424.8,420.7,425.1,419.1,424.4,417.7L424.4,417.7z"/>
		</g>
	</g>
	<g>
		<path class="st3" d="M145.7,419.1c2.6-5.3,4.7-10.8,7.7-15.9c2.6-4.5,7.4-15.4,17.2-24.1c5.2-4.6,17.9-13.9,37.4-23
			c6.8-3.2,15.4-7.4,22.6-10.2c1.3-0.5,2.7,0.5,2.7,1.9c0,12.4-0.1,52.4-0.3,71.1"/>
		<g>
			<path class="st2" d="M148.2,420.6c1.8-3.8,3.5-7.6,5.3-11.4c1.3-2.6,2.7-5.1,4.1-7.7c2.9-5.4,6-10.7,10.1-15.3
				c2-2.3,4.2-4.4,6.5-6.3c0.3-0.3,0.7-0.6,1-0.8c0.2-0.1,0.3-0.3,0.5-0.4c0.1-0.1,0.7-0.6,0.5-0.4c-0.2,0.2,0.4-0.3,0.5-0.4
				c0.2-0.2,0.4-0.3,0.6-0.5c0.5-0.4,1-0.7,1.5-1.1c5.1-3.7,10.4-7,15.9-10.1c7-4,14.3-7.3,21.5-10.8c3.6-1.7,7.2-3.4,10.8-4.9
				c0.8-0.3,1.5-0.6,2.3-0.9c0.4-0.2,0.8-0.3,1.1-0.5c0.2-0.1,0.6-0.1,0.8-0.3c0.3-0.4,0.1,0.1,0-0.1c0.1,0.2-1.2-0.8-0.7-0.8
				c0,0,0,0.4,0,0.5c0,0.4,0,0.8,0,1.2c0,10.3,0,20.7-0.1,31c0,11.7-0.1,23.4-0.2,35.1c0,1.1,0,2.2,0,3.3c0,3.6,5.6,3.6,5.6,0
				c0.1-11.7,0.1-23.4,0.2-35.1c0-11,0.1-22.1,0.1-33.1c0-0.9,0-1.7,0-2.6c-0.1-2.1-1.2-4.1-3.3-4.8c-2.1-0.6-3.9,0.4-5.8,1.1
				c-2,0.8-3.9,1.6-5.8,2.5c-7.6,3.4-15.3,6.9-22.7,10.8c-10.5,5.4-21.2,11.7-30,19.6c-5.5,4.9-9.9,11-13.6,17.3
				c-3.2,5.6-6.2,11.3-8.9,17.2c-0.9,2-1.8,4-2.7,5.9c-0.7,1.4-0.4,3,1,3.8C145.5,422.3,147.5,421.9,148.2,420.6L148.2,420.6z"/>
		</g>
	</g>
</g>
</svg>
