<?xml version="1.0" encoding="utf-8"?>
<!-- Generator: Adobe Illustrator 27.6.1, SVG Export Plug-In . SVG Version: 6.00 Build 0)  -->
<svg version="1.1" id="color" xmlns="http://www.w3.org/2000/svg" xmlns:xlink="http://www.w3.org/1999/xlink" x="0px" y="0px"
	 viewBox="0 0 540 540" style="enable-background:new 0 0 540 540;" xml:space="preserve">
<style type="text/css">
	.st0{fill:#85807F;}
	.st1{fill:#FFFFFF;}
	.st2{fill:#7A7473;}
	.st3{fill:#211715;}
</style>
<g id="lawyer">
	<g>
		<path class="st0" d="M299.9,244.5c5.6-0.5,12.3-3.3,17.3-8c7.2-6.8,10.2-15.5,12.5-28.1c0,0,0-0.2,0.1-0.3c0.5-4.2,1-8.4,1-8.4
			c1.6-13.6,1.7-27.6-2.8-40.6c-3.3-9.7-9.4-19.4-17-26.7c-5.5-5.2-10.2-8-17.3-10.8c-7.3-2.8-17.8-4.2-25.7-1.8c0,0-5,1.5-10.1,3
			c-0.6-0.1-1.2-0.3-1.2-0.3c-12-2.7-26,8.1-32.7,16.2c-6.7,8-10.8,17.7-13.2,27.6c-3.3,13.8-3.4,28.2-0.4,42.1
			c2.7,12.4,14.6,27.8,8.9,37H246L299.9,244.5z"/>
	</g>
	<g>
		<path class="st1" d="M224.1,194.7c-1.5-1.4-3.5-2-5.2-1.9c-3.7,0.1-5.3,2.1-6,3.3c-2.1,3.6-2,10.1-0.6,14.2
			c1,2.9,2.5,7.3,6.3,10.5c1.7,1.4,4.2,2.3,6.6,1.7c1.7,5.9,4.8,13.1,10.3,19.8c4.6,5.5,9.4,9.6,14.8,11.9c0,1.9,0,2.8-0.2,5.4
			c-0.1,1.3-0.2,2.6-0.7,3.8c-0.6,1.6-1.5,3-2.8,4.1c-1.9,1.5-3.9,2.5-6,3.5c1.3,5.4,2.6,11,4,16.5c7.8,3.8,16.6,5.5,25.4,5.2
			c8.8,0.2,17.6-1.5,25.4-5.2c1.5-5.7,2.9-11.4,4.1-16.9c-1.8-0.8-3.4-1.7-5.1-3c-1.3-1.1-2.2-2.5-2.8-4.1c-0.5-1.2-0.6-2.6-0.7-3.8
			c-0.2-3-0.1-3.7-0.2-6.5c5-2.3,9.1-5.6,13.5-10.9c6.6-8.1,9.8-16.9,11.2-23.4c0,0,0.3-1.3,0.7-3.2c-13.7-19-33.5-42-53.6-57.1
			c-4.6,2-12.4,5.5-17.3,9.3c-9.3,7-12.8,14.1-15.5,21.6L224.1,194.7z"/>
	</g>
	<g>
		<path class="st2" d="M374.4,421.4c-4.2-53.7-5-62-7.7-85.7c-1.5-13.1-4.9-24.6-10.5-33c-9.3-14.2-25.2-20.8-43.6-29.8l-12.3-5.5
			c-4.6,20.2-10.5,41.8-16.9,61.5c-4.7,14.6-6.3,19.5-12.4,34.5h-2c-6.1-15-7.6-19.9-12.4-34.5c-6.4-19.7-12.4-41.3-16.9-61.5
			l-12.3,5.5c-18.4,9-34.3,15.6-43.6,29.8c-5.6,8.4-9,19.9-10.5,33c-2.7,23.7-3.5,32-7.7,85.7H374.4z"/>
	</g>
	<g>
		<g>
			<path class="st3" d="M221.4,246.7c4.4-7.4,0.1-16.6-2.9-23.7c-1.8-4.1-3.6-8.1-4.9-12.3c-1.6-5.2-2.3-10.8-2.6-16.2
				c-0.8-11.4,0.5-23,4.1-33.9c3-9.3,7.9-18,15.1-24.7c3.7-3.5,7.8-6.5,12.4-8.6c4.2-2,9-3.3,13.7-2.3c3,0.6,4.3-4,1.3-4.6
				c-9.6-2-19.1,2.8-26.5,8.6C223,135,217,143,213.1,152.2c-4.6,10.7-6.9,22.4-7.2,34c-0.2,10.9,1.1,22,5.3,32.2
				c2,4.8,4.4,9.6,5.9,14.6c0.6,2,1.2,4.1,1.2,6.2c0.1,1.9-0.2,3.6-1.2,5.2C215.6,246.9,219.8,249.3,221.4,246.7L221.4,246.7z"/>
		</g>
	</g>
	<g>
		<g>
			<path class="st3" d="M303.4,246.4c6.8-1.5,13.1-5.2,17.6-10.4c4-4.5,6.6-9.9,8.3-15.6c1.2-3.7,2-7.6,2.7-11.4
				c0.2-1.3-0.4-2.6-1.7-3c-1.2-0.3-2.7,0.4-3,1.7c-1.4,7.4-3.1,15-7.1,21.4c-4.1,6.5-10.6,11.1-18.2,12.7
				C299.1,242.4,300.4,247.1,303.4,246.4L303.4,246.4z"/>
		</g>
	</g>
	<g>
		<g>
			<path class="st3" d="M255,159.3c-6.9,3.3-13.4,7.3-18.5,13.1c-4.2,4.8-6.9,10.3-9.1,16.2c-0.4,1.2,0.5,2.6,1.7,3
				c1.3,0.4,2.5-0.5,3-1.7c1.9-5.2,4.4-10.2,8.1-14.4c4.8-5.4,10.8-9,17.2-12.1c1.2-0.6,1.5-2.2,0.9-3.3
				C257.6,159,256.2,158.8,255,159.3L255,159.3z"/>
		</g>
	</g>
	<g>
		<g>
			<path class="st3" d="M261.7,160.7c17.4,13.2,32.4,29.8,45.8,47c3.4,4.4,6.7,8.9,9.9,13.5c0.7,1.1,2.1,1.6,3.3,0.9
				c1.1-0.6,1.6-2.2,0.9-3.3c-12.5-18.1-26.8-35.2-42.9-50.1c-4.6-4.3-9.4-8.4-14.5-12.2c-1-0.8-2.7-0.2-3.3,0.9
				C260.1,158.7,260.6,159.9,261.7,160.7L261.7,160.7z"/>
		</g>
	</g>
	<g>
		<g>
			<path class="st3" d="M268.7,122.1c6.7-2,14.2-1.3,20.9,0.6c6.4,1.8,12.5,5,17.5,9.3c11.8,10.1,19.3,24.5,21.5,39.7
				c1.3,9.2,0.9,18.7-0.2,27.9c-0.2,1.3,1.2,2.4,2.4,2.4c1.4,0,2.2-1.1,2.4-2.4c2-17.1,1.3-34.7-6.7-50.4
				c-3.7-7.2-8.6-13.9-14.5-19.4c-5.5-5.1-11.9-8.7-19-11.2c-8-2.7-17.4-3.7-25.6-1.3C264.4,118.4,265.7,123,268.7,122.1
				L268.7,122.1z"/>
		</g>
	</g>
	<path class="st1" d="M294.9,287.7l0.4,0.1c-3.6,13.9-7.7,27.9-11.9,41.1c-4.7,14.6-6.3,19.5-12.4,34.5h-2
		c-6.1-15-7.6-19.9-12.4-34.5c-4.3-13.1-8.4-27.2-11.9-41.1l0.4-0.1c7.7,3.6,16.3,5.2,24.9,5C278.6,292.9,287.2,291.3,294.9,287.7z"
		/>
	<g>
		<g>
			<path class="st3" d="M261.4,233c2.8,1.5,5.9,2.1,9,2.1c3.3,0,6.5-0.7,9.1-2.7c1-0.8,0.9-2.6,0-3.4c-1.1-1-2.3-0.8-3.4,0
				c0.7-0.6,0.2-0.1,0,0c-0.2,0.1-0.4,0.2-0.6,0.3c-0.1,0.1-0.2,0.1-0.3,0.1c-0.3,0.2-0.1-0.1,0.1,0c-0.1,0-0.6,0.2-0.8,0.3
				c-0.7,0.2-1.4,0.4-2.2,0.5c0.4-0.1,0,0-0.2,0c-0.2,0-0.4,0-0.6,0.1c-0.5,0-1,0-1.5,0c-0.5,0-0.9,0-1.4,0c-0.2,0-0.4,0-0.6-0.1
				c0,0-0.8-0.1-0.3,0c-0.7-0.1-1.3-0.2-2-0.4c-0.3-0.1-0.6-0.2-0.8-0.3c-0.6-0.2,0.4,0.2-0.2-0.1c-0.3-0.2-0.7-0.3-1-0.5
				c-1.1-0.6-2.7-0.3-3.3,0.9C260,230.9,260.3,232.4,261.4,233L261.4,233z"/>
		</g>
	</g>
	<g>
		<g>
			<path class="st3" d="M269.2,211.8c0.4,1.5,0.8,3,1,4.6c0-0.2-0.1-0.4-0.1-0.6c0,0.2,0,0.4,0,0.6c0-0.2,0.1-0.4,0.1-0.6
				c0,0.1,0,0.2-0.1,0.3c0.1-0.2,0.2-0.4,0.2-0.6c0,0.1-0.1,0.1-0.1,0.2c0.1-0.2,0.3-0.3,0.4-0.5c0,0.1-0.1,0.1-0.1,0.1
				c0.2-0.1,0.3-0.3,0.5-0.4c-0.1,0.1-0.2,0.1-0.4,0.2c0.2-0.1,0.4-0.2,0.6-0.2c-0.2,0.1-0.4,0.1-0.6,0.2c0.2,0,0.4-0.1,0.6-0.1
				c-0.2,0-0.4,0-0.6,0c0.2,0,0.4,0.1,0.6,0.1c-0.2,0-0.4-0.1-0.6-0.1c-0.3-0.1-0.6-0.1-1,0c-0.3,0-0.6,0.1-0.9,0.3
				c-0.5,0.3-1,0.9-1.1,1.4c-0.1,0.6-0.1,1.3,0.2,1.8c0.3,0.5,0.8,1,1.4,1.1c0.5,0.1,1,0.2,1.5,0.2c0.8,0,1.5-0.2,2.2-0.5
				c0.9-0.4,1.5-1.2,1.8-2.1c0.2-0.8,0.1-1.5,0-2.2c-0.2-1.5-0.6-2.9-1-4.4c-0.3-1.2-1.7-2.1-3-1.7
				C269.7,209.2,268.9,210.5,269.2,211.8L269.2,211.8z"/>
		</g>
	</g>
	<g>
		<path class="st3" d="M245.2,198.8c-0.8,2.5-0.3,8.2,4.4,8.6c6.2,0,6.5-6.9,4.4-10.1C252.4,194.7,247.3,193.6,245.2,198.8z"/>
	</g>
	<g>
		<path class="st3" d="M294.8,198.8c0.8,2.5,0.3,8.2-4.4,8.6c-6.2,0-6.5-6.9-4.4-10.1C287.6,194.7,292.7,193.6,294.8,198.8z"/>
	</g>
	<g>
		<g>
			<path class="st3" d="M222,219.5c1.5,6.8,4.2,13.5,8.1,19.4c4.1,6.3,9.5,12.2,16.1,15.9c3.4,1.9,7.1,3.2,11,3.8
				c1.3,0.2,2.6-0.3,3-1.7c0.3-1.1-0.4-2.8-1.7-3c-13.6-2.1-23.7-14-28.8-26.1c-1.3-3.1-2.3-6.4-3-9.6
				C225.9,215.2,221.3,216.5,222,219.5L222,219.5z"/>
		</g>
	</g>
	<g>
		<g>
			<path class="st3" d="M313.2,218.2c-1.7,7.8-5.1,15.3-10,21.6c-2.4,3.1-5.2,6-8.4,8.3c-3.1,2.1-6.4,3.7-10,4.8
				c-2.9,1-1.7,5.6,1.3,4.6c6.2-2,11.7-5.1,16.4-9.7c5.4-5.3,9.5-11.8,12.4-18.7c1.3-3.1,2.3-6.4,3-9.6
				C318.5,216.5,313.9,215.2,313.2,218.2L313.2,218.2z"/>
		</g>
	</g>
	<g>
		<g>
			<path class="st3" d="M225.8,193c-3.1-2.8-7.5-3.4-11.3-1.6c-2.7,1.3-4.3,3.9-5,6.7c-1.7,6.6-0.1,14.2,3.6,20
				c2.5,3.9,6.6,7.6,11.6,6.9c1.3-0.2,2.4-1,2.4-2.4c0-1.2-1.1-2.6-2.4-2.4c-4,0.5-6.7-2.9-8.4-6.1c-1.4-2.7-2.4-5.6-2.6-8.6
				c-0.2-2.8-0.1-6.3,1.6-8.7c-0.3,0.4,0.7-0.7,0.6-0.6c0.6-0.4,1.3-0.7,2-0.8c1.6-0.3,3.2,0,4.4,1.1
				C224.6,198.5,228,195.1,225.8,193L225.8,193z"/>
		</g>
	</g>
	<g>
		<g>
			<path class="st3" d="M240.9,273.4c3.8-1.6,7.9-3.5,9.9-7.3c1.8-3.4,1.8-7.4,1.8-11.1c0-1.3-1.1-2.4-2.4-2.4
				c-1.3,0-2.4,1.1-2.4,2.4c0,1.3,0,2.7-0.1,4c-0.1,0.9-0.1,1.7-0.2,2.5c-0.1,0.4-0.2,0.8-0.3,1.2c0,0.1-0.2,0.6-0.1,0.3
				c-0.1,0.2-0.2,0.4-0.3,0.6c-0.7,1.4-1.5,2.1-2.9,3c-1.3,0.9-3.1,1.8-4.3,2.3c-1.2,0.5-2.1,1.6-1.7,3
				C238.2,272.9,239.7,273.9,240.9,273.4L240.9,273.4z"/>
		</g>
	</g>
	<g>
		<g>
			<path class="st3" d="M288.5,255c0,3.5,0,7.2,1.5,10.4c1.6,3.5,5,5.6,8.4,7.2c1.1,0.5,2.6,0.4,3.3-0.9c0.6-1.1,0.4-2.7-0.9-3.3
				c-1.5-0.7-2.9-1.5-4.3-2.4c-1.2-0.8-1.7-1.6-2.4-3.1c-0.2-0.4,0.1,0.3,0-0.1c-0.1-0.2-0.2-0.4-0.2-0.6c-0.1-0.4-0.2-0.8-0.3-1.2
				c0-0.2,0,0,0-0.3c0-0.2,0-0.4,0-0.6c0-0.5-0.1-0.9-0.1-1.4c-0.1-1.2-0.1-2.5-0.1-3.7c0-1.3-1.1-2.5-2.4-2.4
				C289.6,252.7,288.5,253.6,288.5,255L288.5,255z"/>
		</g>
	</g>
	<g>
		<g>
			<path class="st3" d="M311.4,275c6.6,3.2,13.3,6.3,19.8,9.8c5.6,3.1,11.1,6.5,15.8,10.8c10.2,9.4,14.7,22.8,16.8,36.2
				c1.2,7.5,1.8,15.2,2.6,22.7c0.8,7.6,1.5,15.2,2.1,22.8c1.1,12.5,2.1,25.1,3,37.6c0.2,2.2,0.3,4.3,0.5,6.5c0.1,1.3,1,2.4,2.4,2.4
				c1.2,0,2.5-1.1,2.4-2.4c-1.1-13.6-2.1-27.2-3.3-40.8c-0.7-8-1.4-16.1-2.2-24.1c-0.7-7-1.5-14-2.3-21.1
				c-1.7-14.3-5.6-29.1-15.4-40c-9.3-10.3-22.3-16.2-34.6-22.1c-1.8-0.8-3.5-1.7-5.3-2.5c-1.2-0.6-2.6-0.3-3.3,0.9
				C309.9,272.7,310.2,274.4,311.4,275L311.4,275z"/>
		</g>
	</g>
	<g>
		<g>
			<path class="st3" d="M332.9,329c-0.2,12.6-0.6,25.2-1.2,37.8c-0.5,11.8-1.1,23.6-1.6,35.4c-0.3,6.4-0.5,12.8-0.8,19.2
				c-0.1,3.1,4.7,3.1,4.8,0c0.5-11.9,1-23.9,1.5-35.8c0.5-11.3,1.1-22.5,1.5-33.8c0.3-7.6,0.4-15.2,0.6-22.8
				C337.7,325.9,332.9,325.9,332.9,329L332.9,329z"/>
		</g>
	</g>
	<g>
		<g>
			<path class="st3" d="M243.9,289.8c8.3,3.8,17,5.3,26.1,5.3c9.1,0,17.8-1.5,26.1-5.3c1.2-0.5,1.5-2.2,0.9-3.3
				c-0.7-1.2-2.1-1.4-3.3-0.9c-7.5,3.5-15.5,4.7-23.7,4.7c-8.2,0-16.2-1.2-23.7-4.7c-1.2-0.5-2.6-0.3-3.3,0.9
				C242.4,287.6,242.7,289.3,243.9,289.8L243.9,289.8z"/>
		</g>
	</g>
	<g>
		<g>
			<path class="st3" d="M288,365.3c11.5-20,22.9-40,33.4-60.5c0.8-1.5,1.4-2.9,1-4.6c-0.4-1.6-1.8-2.7-2.9-3.9
				c-2.3-2.4-4.7-4.7-7.1-7c-0.2,1.3-0.3,2.5-0.5,3.8c1.9-1.1,3.9-2.2,5.8-3.3c1.8-1,4.1-1.9,3.9-4.4c-0.1-1.5-1.3-3.1-2.2-4.3
				c-0.9-1.3-2-2.5-3.1-3.7c-4.4-4.6-9.6-8.6-15-12c-1.3-0.8-3.2,0-3.5,1.4c-5.9,26.3-13.4,52.4-22.3,77.8c-2.1,6.1-4.5,12.1-7,18.2
				c-0.5,1.2,0.5,2.6,1.7,3c1.4,0.4,2.5-0.5,3-1.7c9.6-23.7,17.1-48.2,23.6-72.8c2-7.7,3.9-15.4,5.7-23.2c-1.2,0.5-2.4,1-3.5,1.4
				c3.5,2.3,6.9,4.8,10,7.5c1.7,1.5,3.3,3,4.8,4.7c0.6,0.7,1.2,1.3,1.7,2c0.3,0.4,0.6,0.8,0.8,1.2c0.1,0.2,0.2,0.3,0.3,0.5
				c0,0.1,0.2,0.6,0.2,0.4c0.1-0.4,0.2-0.8,0.3-1.2c0.2-0.4-0.2,0.1-0.5,0.2c-0.3,0.2-0.7,0.4-1,0.6c-0.7,0.4-1.4,0.8-2.1,1.2
				c-1.4,0.8-2.8,1.6-4.2,2.4c-1.3,0.7-1.6,2.7-0.5,3.8c2.1,1.9,4.1,3.9,6.1,5.9c0.4,0.5,0.9,0.9,1.3,1.4c0.4,0.4,1.1,0.9,1.3,1.4
				c0,0.1,0.1-0.2-0.1,0.1c-0.3,0.7-0.7,1.3-1,2c-2.5,4.8-5,9.6-7.5,14.3c-5.2,9.7-10.6,19.4-16.1,29c-3,5.4-6.1,10.7-9.2,16.1
				C282.3,365.5,286.5,367.9,288,365.3L288,365.3z"/>
		</g>
	</g>
	<g>
		<g>
			<path class="st3" d="M226.2,270.8c-12.6,6.1-26,11.7-36.4,21.3c-10.6,9.7-15.6,23.3-17.9,37.1c-1.4,8.2-2,16.5-2.9,24.8
				c-0.8,7.6-1.5,15.3-2.1,22.9c-1.1,12.7-2.1,25.3-3.1,38c-0.2,2.2-0.3,4.3-0.5,6.5c-0.1,1.3,1.2,2.4,2.4,2.4
				c1.4,0,2.3-1.1,2.4-2.4c1.1-13.5,2.1-26.9,3.2-40.4c0.7-8,1.4-16,2.2-23.9c0.7-6.8,1.4-13.6,2.2-20.4
				c1.5-13.3,4.9-27.4,14.1-37.7c9-10,21.8-15.7,33.7-21.5c1.8-0.8,3.5-1.7,5.3-2.5c1.2-0.6,1.5-2.2,0.9-3.3
				C228.8,270.5,227.4,270.3,226.2,270.8L226.2,270.8z"/>
		</g>
	</g>
	<g>
		<g>
			<path class="st3" d="M202.3,329c0.2,12.6,0.6,25.2,1.2,37.8c0.5,11.8,1.1,23.6,1.6,35.4c0.3,6.4,0.5,12.8,0.8,19.2
				c0.1,3.1,4.9,3.1,4.8,0c-0.5-11.9-1-23.9-1.5-35.8c-0.5-11.3-1.1-22.5-1.5-33.8c-0.3-7.6-0.4-15.2-0.6-22.8
				C207.1,325.9,202.3,325.9,202.3,329L202.3,329z"/>
		</g>
	</g>
	<g>
		<g>
			<path class="st3" d="M256.1,362.8c-10.9-18.9-21.7-37.9-31.8-57.3c-0.7-1.3-1.4-2.7-2.1-4c0,0-0.1-0.2-0.1-0.2
				c0,0.3,0,0.1,0.3-0.3c0.5-0.6,1.1-1.2,1.6-1.7c2.2-2.3,4.5-4.5,6.8-6.6c1.1-1.1,0.8-3-0.5-3.8c-1.4-0.8-2.8-1.6-4.2-2.4
				c-0.6-0.4-1.2-0.7-1.9-1.1c-0.3-0.2-0.7-0.4-1-0.6c-0.1-0.1-0.3-0.2-0.4-0.2c-0.5-0.3-0.5-0.3-0.2-0.1c0.1,0.4,0.2,0.8,0.3,1.2
				c0,0.3,0.1-0.1,0.2-0.2c0.1-0.2,0.2-0.4,0.3-0.6c0.2-0.4,0.5-0.7,0.7-1.1c0.5-0.7,1.1-1.4,1.7-2c1.5-1.7,3.2-3.3,4.9-4.8
				c3.1-2.7,6.5-5.3,10-7.5c-1.2-0.5-2.4-1-3.5-1.4c5.9,26.3,13.4,52.4,22.3,77.8c2.1,6.1,4.5,12.1,7,18.2c0.5,1.2,1.6,2,3,1.7
				c1.1-0.3,2.2-1.7,1.7-3c-9.6-23.7-17.1-48.2-23.6-72.8c-2-7.7-3.9-15.4-5.7-23.2c-0.3-1.5-2.3-2.2-3.5-1.4
				c-5.4,3.4-10.6,7.4-15,12c-1.1,1.2-2.1,2.4-3.1,3.7c-0.9,1.2-1.9,2.6-2.1,4c-0.5,2.6,2,3.7,3.9,4.7c1.9,1.1,3.9,2.2,5.8,3.3
				c-0.2-1.3-0.3-2.5-0.5-3.8c-2.2,2.1-4.4,4.1-6.5,6.3c-1.9,1.9-4.4,4-3.5,7.1c0.4,1.3,1.2,2.5,1.8,3.7c0.7,1.4,1.4,2.7,2.1,4
				c1.3,2.5,2.6,4.9,3.9,7.4c5.5,10.3,11.2,20.5,16.9,30.6c3.2,5.6,6.4,11.3,9.7,16.9C253.5,367.9,257.7,365.5,256.1,362.8
				L256.1,362.8z"/>
		</g>
	</g>
</g>
</svg>
